<mxfile host="Electron" agent="Mozilla/5.0 (Macintosh; Intel Mac OS X 10_15_7) AppleWebKit/537.36 (KHTML, like Gecko) draw.io/24.7.8 Chrome/128.0.6613.36 Electron/32.0.1 Safari/537.36" version="24.7.8" pages="6">
  <diagram id="18uvMIyNR3uQe0N5TzPJ" name="Mapa de Navegación">
    <mxGraphModel dx="2074" dy="1214" grid="1" gridSize="10" guides="1" tooltips="1" connect="1" arrows="1" fold="1" page="1" pageScale="1" pageWidth="1100" pageHeight="850" math="0" shadow="0">
      <root>
        <mxCell id="0" />
        <mxCell id="1" parent="0" />
        <mxCell id="x5e6tu6vCdkNJ0rVzBds-32" value="" style="edgeStyle=orthogonalEdgeStyle;rounded=0;orthogonalLoop=1;jettySize=auto;html=1;entryX=0.5;entryY=0;entryDx=0;entryDy=0;endArrow=none;endFill=0;" parent="1" target="x5e6tu6vCdkNJ0rVzBds-28" edge="1">
          <mxGeometry relative="1" as="geometry">
            <mxPoint x="480" y="120.0666666666666" as="sourcePoint" />
          </mxGeometry>
        </mxCell>
        <mxCell id="x5e6tu6vCdkNJ0rVzBds-33" value="" style="edgeStyle=orthogonalEdgeStyle;rounded=0;orthogonalLoop=1;jettySize=auto;html=1;endArrow=none;endFill=0;exitX=0.5;exitY=1;exitDx=0;exitDy=0;" parent="1" source="x5e6tu6vCdkNJ0rVzBds-42" target="x5e6tu6vCdkNJ0rVzBds-29" edge="1">
          <mxGeometry relative="1" as="geometry">
            <mxPoint x="540" y="160" as="sourcePoint" />
          </mxGeometry>
        </mxCell>
        <mxCell id="x5e6tu6vCdkNJ0rVzBds-36" style="edgeStyle=orthogonalEdgeStyle;rounded=0;orthogonalLoop=1;jettySize=auto;html=1;entryX=0.5;entryY=0;entryDx=0;entryDy=0;endArrow=none;endFill=0;" parent="1" target="x5e6tu6vCdkNJ0rVzBds-30" edge="1">
          <mxGeometry relative="1" as="geometry">
            <mxPoint x="600" y="120.0666666666666" as="sourcePoint" />
          </mxGeometry>
        </mxCell>
        <mxCell id="x5e6tu6vCdkNJ0rVzBds-37" style="edgeStyle=orthogonalEdgeStyle;rounded=0;orthogonalLoop=1;jettySize=auto;html=1;entryX=0.5;entryY=0;entryDx=0;entryDy=0;endArrow=none;endFill=0;" parent="1" target="x5e6tu6vCdkNJ0rVzBds-31" edge="1">
          <mxGeometry relative="1" as="geometry">
            <mxPoint x="600" y="120.0666666666666" as="sourcePoint" />
          </mxGeometry>
        </mxCell>
        <mxCell id="x5e6tu6vCdkNJ0rVzBds-19" value="PRINCIPAL" style="rounded=1;whiteSpace=wrap;html=1;fillColor=#003F69;fontColor=#FFFFFF;fontSize=14;" parent="1" vertex="1">
          <mxGeometry x="80" y="250" width="120" height="60" as="geometry" />
        </mxCell>
        <mxCell id="x5e6tu6vCdkNJ0rVzBds-28" value="EQUIPO PROFESIONAL" style="rounded=1;whiteSpace=wrap;html=1;fillColor=#003F69;fontColor=#FFFFFF;fontSize=14;" parent="1" vertex="1">
          <mxGeometry x="280" y="250" width="120" height="60" as="geometry" />
        </mxCell>
        <mxCell id="x5e6tu6vCdkNJ0rVzBds-29" value="ACTIVIDADES ACADÉMICAS" style="rounded=1;whiteSpace=wrap;html=1;fillColor=#003F69;fontColor=#FFFFFF;fontSize=14;" parent="1" vertex="1">
          <mxGeometry x="480" y="250" width="120" height="60" as="geometry" />
        </mxCell>
        <mxCell id="x5e6tu6vCdkNJ0rVzBds-39" value="" style="edgeStyle=orthogonalEdgeStyle;rounded=0;orthogonalLoop=1;jettySize=auto;html=1;" parent="1" source="x5e6tu6vCdkNJ0rVzBds-30" target="x5e6tu6vCdkNJ0rVzBds-38" edge="1">
          <mxGeometry relative="1" as="geometry" />
        </mxCell>
        <mxCell id="x5e6tu6vCdkNJ0rVzBds-41" value="" style="edgeStyle=orthogonalEdgeStyle;rounded=0;orthogonalLoop=1;jettySize=auto;html=1;" parent="1" source="x5e6tu6vCdkNJ0rVzBds-30" target="x5e6tu6vCdkNJ0rVzBds-40" edge="1">
          <mxGeometry relative="1" as="geometry" />
        </mxCell>
        <mxCell id="x5e6tu6vCdkNJ0rVzBds-30" value="INGRESO USUARIOS" style="rounded=1;whiteSpace=wrap;html=1;fillColor=#003F69;fontColor=#FFFFFF;fontSize=14;" parent="1" vertex="1">
          <mxGeometry x="680" y="250" width="120" height="60" as="geometry" />
        </mxCell>
        <mxCell id="x5e6tu6vCdkNJ0rVzBds-31" value="CONTÁCTENOS" style="rounded=1;whiteSpace=wrap;html=1;fillColor=#003F69;fontColor=#FFFFFF;fontSize=14;" parent="1" vertex="1">
          <mxGeometry x="880" y="250" width="120" height="60" as="geometry" />
        </mxCell>
        <mxCell id="x5e6tu6vCdkNJ0rVzBds-38" value="MÉDICO ESPECIALISTA" style="rounded=1;whiteSpace=wrap;html=1;fillColor=#106B87;fontColor=#FFFFFF;fontSize=13;" parent="1" vertex="1">
          <mxGeometry x="580" y="410" width="120" height="60" as="geometry" />
        </mxCell>
        <mxCell id="x5e6tu6vCdkNJ0rVzBds-40" value="ADMINISTRACIÓN" style="rounded=1;whiteSpace=wrap;html=1;fillColor=#106B87;fontColor=#FFFFFF;fontSize=13;" parent="1" vertex="1">
          <mxGeometry x="780" y="410" width="120" height="60" as="geometry" />
        </mxCell>
        <mxCell id="x5e6tu6vCdkNJ0rVzBds-43" style="edgeStyle=orthogonalEdgeStyle;rounded=0;orthogonalLoop=1;jettySize=auto;html=1;" parent="1" source="x5e6tu6vCdkNJ0rVzBds-42" target="x5e6tu6vCdkNJ0rVzBds-19" edge="1">
          <mxGeometry relative="1" as="geometry" />
        </mxCell>
        <mxCell id="x5e6tu6vCdkNJ0rVzBds-42" value="&lt;font style=&quot;font-size: 18px;&quot; color=&quot;#ffffff&quot;&gt;PÁGINA PRINCIPAL&lt;/font&gt;" style="rounded=1;whiteSpace=wrap;html=1;fillColor=#003F69;" parent="1" vertex="1">
          <mxGeometry x="480" y="90" width="120" height="60" as="geometry" />
        </mxCell>
      </root>
    </mxGraphModel>
  </diagram>
  <diagram id="Ysewx5kA_v7ke0ZkYmD9" name="Principal">
    <mxGraphModel dx="1475" dy="1214" grid="1" gridSize="10" guides="1" tooltips="1" connect="1" arrows="1" fold="1" page="1" pageScale="1" pageWidth="1100" pageHeight="850" math="0" shadow="0">
      <root>
        <mxCell id="0" />
        <mxCell id="1" parent="0" />
        <mxCell id="KSTHwRKB5dPDn1mEprGm-2" value="" style="strokeWidth=1;shadow=0;dashed=0;align=center;html=1;shape=mxgraph.mockup.containers.browserWindow;rSize=0;strokeColor=#666666;strokeColor2=#008cff;strokeColor3=#c4c4c4;mainText=,;recursiveResize=0;" parent="1" vertex="1">
          <mxGeometry x="55" y="125" width="990" height="690" as="geometry" />
        </mxCell>
        <mxCell id="KSTHwRKB5dPDn1mEprGm-3" value="Page 1" style="strokeWidth=1;shadow=0;dashed=0;align=center;html=1;shape=mxgraph.mockup.containers.anchor;fontSize=17;fontColor=#666666;align=left;whiteSpace=wrap;" parent="KSTHwRKB5dPDn1mEprGm-2" vertex="1">
          <mxGeometry x="60" y="12" width="110" height="26" as="geometry" />
        </mxCell>
        <mxCell id="KSTHwRKB5dPDn1mEprGm-4" value="https://www.medicosascociados.com" style="strokeWidth=1;shadow=0;dashed=0;align=center;html=1;shape=mxgraph.mockup.containers.anchor;rSize=0;fontSize=17;fontColor=#666666;align=left;" parent="KSTHwRKB5dPDn1mEprGm-2" vertex="1">
          <mxGeometry x="130" y="60" width="250" height="26" as="geometry" />
        </mxCell>
        <mxCell id="KSTHwRKB5dPDn1mEprGm-5" value="" style="rounded=0;whiteSpace=wrap;html=1;fillColor=#003f69;" parent="KSTHwRKB5dPDn1mEprGm-2" vertex="1">
          <mxGeometry y="110" width="990" height="580" as="geometry" />
        </mxCell>
        <mxCell id="C0nhRtzbsRRRQ6nFDDcQ-1" value="&lt;font style=&quot;font-size: 12px;&quot;&gt;CONTÁCTENOS&lt;/font&gt;" style="strokeWidth=1;shadow=0;dashed=0;align=center;html=1;shape=mxgraph.mockup.buttons.button;strokeColor=#6C8EBF;fontColor=#ffffff;mainText=;buttonStyle=round;fontSize=17;fontStyle=1;fillColor=#157A8C;whiteSpace=wrap;" parent="KSTHwRKB5dPDn1mEprGm-2" vertex="1">
          <mxGeometry x="840" y="110" width="150" height="50" as="geometry" />
        </mxCell>
        <mxCell id="KSTHwRKB5dPDn1mEprGm-6" value="" style="strokeWidth=1;shadow=0;dashed=0;align=center;html=1;shape=mxgraph.mockup.rrect;rSize=10;fillColor=#ffffff;strokeColor=#666666;" parent="KSTHwRKB5dPDn1mEprGm-2" vertex="1">
          <mxGeometry x="340" y="110" width="500" height="50" as="geometry" />
        </mxCell>
        <mxCell id="KSTHwRKB5dPDn1mEprGm-7" value="&lt;font style=&quot;font-size: 12px;&quot;&gt;EQUIPO PROFESIONAL&lt;span style=&quot;white-space: pre;&quot;&gt;&#x9;&lt;/span&gt;&lt;/font&gt;" style="strokeColor=#6C8EBF;fillColor=#157A8C;strokeWidth=1;shadow=0;dashed=0;align=center;html=1;shape=mxgraph.mockup.rrect;rSize=0;fontSize=17;fontStyle=1;resizeHeight=1;whiteSpace=wrap;fontColor=#FFFFFF;" parent="KSTHwRKB5dPDn1mEprGm-6" vertex="1">
          <mxGeometry width="125" height="50" relative="1" as="geometry">
            <mxPoint x="125" as="offset" />
          </mxGeometry>
        </mxCell>
        <mxCell id="KSTHwRKB5dPDn1mEprGm-8" value="&lt;font style=&quot;font-size: 12px;&quot;&gt;ACTIVIDADES ACADÉMICAS&lt;/font&gt;" style="strokeColor=#6C8EBF;fillColor=#157A8C;strokeWidth=1;shadow=0;dashed=0;align=center;html=1;shape=mxgraph.mockup.rrect;rSize=0;fontSize=17;fontStyle=1;resizeHeight=1;whiteSpace=wrap;fontColor=#FFFFFF;" parent="KSTHwRKB5dPDn1mEprGm-6" vertex="1">
          <mxGeometry width="125" height="50" relative="1" as="geometry">
            <mxPoint x="250" as="offset" />
          </mxGeometry>
        </mxCell>
        <mxCell id="KSTHwRKB5dPDn1mEprGm-9" value="&lt;font style=&quot;font-size: 12px;&quot;&gt;INGRESO USUARIOS&lt;/font&gt;" style="strokeColor=#6C8EBF;fillColor=#157A8C;strokeWidth=1;shadow=0;dashed=0;align=center;html=1;shape=mxgraph.mockup.rightButton;rSize=10;fontSize=17;fontStyle=1;resizeHeight=1;whiteSpace=wrap;fontColor=#FFFFFF;" parent="KSTHwRKB5dPDn1mEprGm-6" vertex="1">
          <mxGeometry x="1" width="125" height="50" relative="1" as="geometry">
            <mxPoint x="-125" as="offset" />
          </mxGeometry>
        </mxCell>
        <mxCell id="KSTHwRKB5dPDn1mEprGm-10" value="PRINCIPAL" style="strokeWidth=1;shadow=0;dashed=0;align=center;html=1;shape=mxgraph.mockup.leftButton;rSize=10;fontSize=17;fontColor=#ffffff;fontStyle=1;fillColor=#260D33;strokeColor=#008cff;resizeHeight=1;whiteSpace=wrap;" parent="KSTHwRKB5dPDn1mEprGm-6" vertex="1">
          <mxGeometry width="125" height="50" relative="1" as="geometry" />
        </mxCell>
        <mxCell id="5lfyTqy3FbPIcJvgHmvA-3" value="&lt;font style=&quot;font-size: 37px;&quot; face=&quot;Tahoma&quot; color=&quot;#ffffff&quot;&gt;EMPRESA DE MÉDICOS ASOCIADOS&lt;/font&gt;" style="text;strokeColor=none;fillColor=none;html=1;fontSize=24;fontStyle=1;verticalAlign=middle;align=center;" parent="KSTHwRKB5dPDn1mEprGm-2" vertex="1">
          <mxGeometry x="155" y="332.5" width="680" height="45" as="geometry" />
        </mxCell>
        <mxCell id="bGg0hD7oVvNMS5m7eHrH-3" value="" style="group" vertex="1" connectable="0" parent="KSTHwRKB5dPDn1mEprGm-2">
          <mxGeometry x="25" y="635" width="965" height="45" as="geometry" />
        </mxCell>
        <mxCell id="bGg0hD7oVvNMS5m7eHrH-2" value="" style="group" vertex="1" connectable="0" parent="bGg0hD7oVvNMS5m7eHrH-3">
          <mxGeometry x="5" width="960" height="45" as="geometry" />
        </mxCell>
        <mxCell id="2jMQqUDUrGW8wsyO8JTk-1" value="&lt;h1&gt;&lt;span style=&quot;color: rgb(255, 255, 255); background-color: initial; font-size: 12px; font-weight: normal;&quot;&gt;Política de Cookies&lt;/span&gt;&lt;/h1&gt;" style="text;html=1;strokeColor=none;fillColor=none;spacing=5;spacingTop=-20;whiteSpace=wrap;overflow=hidden;rounded=0;" vertex="1" parent="bGg0hD7oVvNMS5m7eHrH-2">
          <mxGeometry x="170" width="180" height="45" as="geometry" />
        </mxCell>
        <mxCell id="bGg0hD7oVvNMS5m7eHrH-1" value="" style="group" vertex="1" connectable="0" parent="bGg0hD7oVvNMS5m7eHrH-2">
          <mxGeometry width="960" height="45" as="geometry" />
        </mxCell>
        <mxCell id="TYFsFP1fMgVriBH6-nPR-3" value="" style="endArrow=none;html=1;rounded=0;strokeColor=#ffffff;entryX=0.965;entryY=0.922;entryDx=0;entryDy=0;entryPerimeter=0;" edge="1" parent="bGg0hD7oVvNMS5m7eHrH-1">
          <mxGeometry width="50" height="50" relative="1" as="geometry">
            <mxPoint y="0.4800000000000182" as="sourcePoint" />
            <mxPoint x="930.3499999999999" as="targetPoint" />
          </mxGeometry>
        </mxCell>
        <mxCell id="2jMQqUDUrGW8wsyO8JTk-2" value="&lt;h1&gt;&lt;span style=&quot;color: rgb(255, 255, 255); background-color: initial; font-size: 12px; font-weight: normal;&quot;&gt;Derechos reservados&lt;/span&gt;&lt;/h1&gt;" style="text;html=1;strokeColor=none;fillColor=none;spacing=5;spacingTop=-20;whiteSpace=wrap;overflow=hidden;rounded=0;" vertex="1" parent="bGg0hD7oVvNMS5m7eHrH-1">
          <mxGeometry x="780" width="180" height="45" as="geometry" />
        </mxCell>
        <mxCell id="TYFsFP1fMgVriBH6-nPR-1" value="&lt;h1&gt;&lt;span style=&quot;color: rgb(255, 255, 255); background-color: initial; font-size: 12px; font-weight: normal;&quot;&gt;Política de Manejo de Datos&lt;/span&gt;&lt;/h1&gt;" style="text;html=1;strokeColor=none;fillColor=none;spacing=5;spacingTop=-20;whiteSpace=wrap;overflow=hidden;rounded=0;" vertex="1" parent="bGg0hD7oVvNMS5m7eHrH-1">
          <mxGeometry x="-5" width="180" height="45" as="geometry" />
        </mxCell>
      </root>
    </mxGraphModel>
  </diagram>
  <diagram name="EquipoProfesional" id="VrLQFxx2wRWlRFIBGkdb">
    <mxGraphModel dx="1475" dy="1214" grid="1" gridSize="10" guides="1" tooltips="1" connect="1" arrows="1" fold="1" page="1" pageScale="1" pageWidth="1100" pageHeight="850" math="0" shadow="0">
      <root>
        <mxCell id="Gxb5l-fuCvO7nxLd9IKh-0" />
        <mxCell id="Gxb5l-fuCvO7nxLd9IKh-1" parent="Gxb5l-fuCvO7nxLd9IKh-0" />
        <mxCell id="Gxb5l-fuCvO7nxLd9IKh-2" value="" style="strokeWidth=1;shadow=0;dashed=0;align=center;html=1;shape=mxgraph.mockup.containers.browserWindow;rSize=0;strokeColor=#666666;strokeColor2=#008cff;strokeColor3=#c4c4c4;mainText=,;recursiveResize=0;" parent="Gxb5l-fuCvO7nxLd9IKh-1" vertex="1">
          <mxGeometry x="55" y="125" width="990" height="680" as="geometry" />
        </mxCell>
        <mxCell id="Gxb5l-fuCvO7nxLd9IKh-3" value="Page 1" style="strokeWidth=1;shadow=0;dashed=0;align=center;html=1;shape=mxgraph.mockup.containers.anchor;fontSize=17;fontColor=#666666;align=left;whiteSpace=wrap;" parent="Gxb5l-fuCvO7nxLd9IKh-2" vertex="1">
          <mxGeometry x="60" y="12" width="110" height="26" as="geometry" />
        </mxCell>
        <mxCell id="Gxb5l-fuCvO7nxLd9IKh-4" value="https://www.medicosascociados.com/EquipoProfesional" style="strokeWidth=1;shadow=0;dashed=0;align=center;html=1;shape=mxgraph.mockup.containers.anchor;rSize=0;fontSize=17;fontColor=#666666;align=left;" parent="Gxb5l-fuCvO7nxLd9IKh-2" vertex="1">
          <mxGeometry x="130" y="60" width="250" height="26" as="geometry" />
        </mxCell>
        <mxCell id="Gxb5l-fuCvO7nxLd9IKh-5" value="" style="rounded=0;whiteSpace=wrap;html=1;fillColor=#003F69;" parent="Gxb5l-fuCvO7nxLd9IKh-2" vertex="1">
          <mxGeometry y="110" width="990" height="570" as="geometry" />
        </mxCell>
        <mxCell id="Gxb5l-fuCvO7nxLd9IKh-6" value="&lt;font style=&quot;font-size: 12px;&quot;&gt;CONTÁCTENOS&lt;/font&gt;" style="strokeWidth=1;shadow=0;dashed=0;align=center;html=1;shape=mxgraph.mockup.buttons.button;strokeColor=#6C8EBF;fontColor=#ffffff;mainText=;buttonStyle=round;fontSize=17;fontStyle=1;fillColor=#106b87;whiteSpace=wrap;" parent="Gxb5l-fuCvO7nxLd9IKh-2" vertex="1">
          <mxGeometry x="840" y="110" width="150" height="50" as="geometry" />
        </mxCell>
        <mxCell id="Gxb5l-fuCvO7nxLd9IKh-7" value="" style="strokeWidth=1;shadow=0;dashed=0;align=center;html=1;shape=mxgraph.mockup.rrect;rSize=10;fillColor=#ffffff;strokeColor=#666666;" parent="Gxb5l-fuCvO7nxLd9IKh-2" vertex="1">
          <mxGeometry x="340" y="110" width="500" height="50" as="geometry" />
        </mxCell>
        <mxCell id="Gxb5l-fuCvO7nxLd9IKh-8" value="&lt;font color=&quot;#ffffff&quot; style=&quot;font-size: 12px;&quot;&gt;EQUIPO PROFESIONAL&lt;span style=&quot;white-space: pre;&quot;&gt;&#x9;&lt;/span&gt;&lt;/font&gt;" style="strokeColor=#d6b656;fillColor=#260d33;strokeWidth=1;shadow=0;dashed=0;align=center;html=1;shape=mxgraph.mockup.rrect;rSize=0;fontSize=17;fontStyle=1;resizeHeight=1;whiteSpace=wrap;" parent="Gxb5l-fuCvO7nxLd9IKh-7" vertex="1">
          <mxGeometry width="125" height="50" relative="1" as="geometry">
            <mxPoint x="125" as="offset" />
          </mxGeometry>
        </mxCell>
        <mxCell id="Gxb5l-fuCvO7nxLd9IKh-9" value="&lt;font color=&quot;#ffffff&quot; style=&quot;font-size: 12px;&quot;&gt;ACTIVIDADES ACADÉMICAS&lt;/font&gt;" style="strokeColor=#6c8ebf;fillColor=#106B87;strokeWidth=1;shadow=0;dashed=0;align=center;html=1;shape=mxgraph.mockup.rrect;rSize=0;fontSize=17;fontStyle=1;resizeHeight=1;whiteSpace=wrap;" parent="Gxb5l-fuCvO7nxLd9IKh-7" vertex="1">
          <mxGeometry width="125" height="50" relative="1" as="geometry">
            <mxPoint x="250" as="offset" />
          </mxGeometry>
        </mxCell>
        <mxCell id="Gxb5l-fuCvO7nxLd9IKh-10" value="&lt;font color=&quot;#ffffff&quot; style=&quot;font-size: 12px;&quot;&gt;INGRESO USUARIOS&lt;/font&gt;" style="strokeColor=#6c8ebf;fillColor=#106B87;strokeWidth=1;shadow=0;dashed=0;align=center;html=1;shape=mxgraph.mockup.rightButton;rSize=10;fontSize=17;fontStyle=1;resizeHeight=1;whiteSpace=wrap;" parent="Gxb5l-fuCvO7nxLd9IKh-7" vertex="1">
          <mxGeometry x="1" width="125" height="50" relative="1" as="geometry">
            <mxPoint x="-125" as="offset" />
          </mxGeometry>
        </mxCell>
        <mxCell id="Gxb5l-fuCvO7nxLd9IKh-11" value="&lt;font style=&quot;font-size: 12px;&quot;&gt;PRINCIPAL&lt;/font&gt;" style="strokeWidth=1;shadow=0;dashed=0;align=center;html=1;shape=mxgraph.mockup.leftButton;rSize=10;fontSize=17;fontColor=#ffffff;fontStyle=1;fillColor=#106B87;strokeColor=#008cff;resizeHeight=1;whiteSpace=wrap;" parent="Gxb5l-fuCvO7nxLd9IKh-7" vertex="1">
          <mxGeometry width="125" height="50" relative="1" as="geometry" />
        </mxCell>
        <mxCell id="Gxb5l-fuCvO7nxLd9IKh-12" value="&lt;font face=&quot;Tahoma&quot; color=&quot;#ffffff&quot;&gt;&lt;span style=&quot;font-size: 37px;&quot;&gt;EQUIPO PROFESIONAL&lt;/span&gt;&lt;/font&gt;" style="text;strokeColor=none;fillColor=none;html=1;fontSize=24;fontStyle=1;verticalAlign=middle;align=center;" parent="Gxb5l-fuCvO7nxLd9IKh-2" vertex="1">
          <mxGeometry x="15" y="180" width="455" height="45" as="geometry" />
        </mxCell>
        <mxCell id="NZJY84B_Le4Q6grJptLa-0" value="&lt;font color=&quot;#ffffff&quot;&gt;Text&lt;/font&gt;" style="text;html=1;strokeColor=none;fillColor=none;align=center;verticalAlign=middle;whiteSpace=wrap;rounded=0;" parent="Gxb5l-fuCvO7nxLd9IKh-2" vertex="1">
          <mxGeometry x="275" y="375" width="60" height="30" as="geometry" />
        </mxCell>
        <mxCell id="NZJY84B_Le4Q6grJptLa-1" value="&lt;font color=&quot;#ffffff&quot;&gt;Text&lt;/font&gt;" style="text;html=1;strokeColor=none;fillColor=none;align=center;verticalAlign=middle;whiteSpace=wrap;rounded=0;" parent="Gxb5l-fuCvO7nxLd9IKh-2" vertex="1">
          <mxGeometry x="465" y="375" width="60" height="30" as="geometry" />
        </mxCell>
        <mxCell id="NZJY84B_Le4Q6grJptLa-2" value="&lt;font color=&quot;#ffffff&quot;&gt;Text&lt;/font&gt;" style="text;html=1;strokeColor=none;fillColor=none;align=center;verticalAlign=middle;whiteSpace=wrap;rounded=0;" parent="Gxb5l-fuCvO7nxLd9IKh-2" vertex="1">
          <mxGeometry x="655" y="375" width="60" height="30" as="geometry" />
        </mxCell>
        <mxCell id="NZJY84B_Le4Q6grJptLa-3" value="&lt;font color=&quot;#ffffff&quot;&gt;Text&lt;/font&gt;" style="text;html=1;strokeColor=none;fillColor=none;align=center;verticalAlign=middle;whiteSpace=wrap;rounded=0;" parent="Gxb5l-fuCvO7nxLd9IKh-2" vertex="1">
          <mxGeometry x="275" y="535" width="60" height="30" as="geometry" />
        </mxCell>
        <mxCell id="NZJY84B_Le4Q6grJptLa-4" value="&lt;font color=&quot;#ffffff&quot;&gt;Text&lt;/font&gt;" style="text;html=1;strokeColor=none;fillColor=none;align=center;verticalAlign=middle;whiteSpace=wrap;rounded=0;" parent="Gxb5l-fuCvO7nxLd9IKh-2" vertex="1">
          <mxGeometry x="465" y="535" width="60" height="30" as="geometry" />
        </mxCell>
        <mxCell id="NZJY84B_Le4Q6grJptLa-5" value="&lt;font color=&quot;#ffffff&quot;&gt;Text&lt;/font&gt;" style="text;html=1;strokeColor=none;fillColor=none;align=center;verticalAlign=middle;whiteSpace=wrap;rounded=0;" parent="Gxb5l-fuCvO7nxLd9IKh-2" vertex="1">
          <mxGeometry x="655" y="535" width="60" height="30" as="geometry" />
        </mxCell>
        <mxCell id="gqEKXiIxU9d6-bgGEvHK-5" value="" style="group" parent="Gxb5l-fuCvO7nxLd9IKh-2" vertex="1" connectable="0">
          <mxGeometry x="255" y="255" width="120" height="120" as="geometry" />
        </mxCell>
        <mxCell id="gqEKXiIxU9d6-bgGEvHK-4" value="" style="rounded=1;whiteSpace=wrap;html=1;" parent="gqEKXiIxU9d6-bgGEvHK-5" vertex="1">
          <mxGeometry width="120" height="120" as="geometry" />
        </mxCell>
        <mxCell id="gqEKXiIxU9d6-bgGEvHK-3" value="" style="image;html=1;image=img/lib/clip_art/people/Suit_Woman_Green_128x128.png" parent="gqEKXiIxU9d6-bgGEvHK-5" vertex="1">
          <mxGeometry width="120" height="120" as="geometry" />
        </mxCell>
        <mxCell id="gqEKXiIxU9d6-bgGEvHK-11" value="" style="group" parent="Gxb5l-fuCvO7nxLd9IKh-2" vertex="1" connectable="0">
          <mxGeometry x="255" y="415" width="120" height="120" as="geometry" />
        </mxCell>
        <mxCell id="gqEKXiIxU9d6-bgGEvHK-10" value="" style="rounded=1;whiteSpace=wrap;html=1;" parent="gqEKXiIxU9d6-bgGEvHK-11" vertex="1">
          <mxGeometry width="120" height="120" as="geometry" />
        </mxCell>
        <mxCell id="gqEKXiIxU9d6-bgGEvHK-9" value="" style="image;html=1;image=img/lib/clip_art/people/Suit_Woman_Blue_128x128.png" parent="gqEKXiIxU9d6-bgGEvHK-11" vertex="1">
          <mxGeometry width="120" height="120" as="geometry" />
        </mxCell>
        <mxCell id="gqEKXiIxU9d6-bgGEvHK-8" value="" style="group" parent="Gxb5l-fuCvO7nxLd9IKh-2" vertex="1" connectable="0">
          <mxGeometry x="435" y="415" width="120" height="120" as="geometry" />
        </mxCell>
        <mxCell id="gqEKXiIxU9d6-bgGEvHK-7" value="" style="rounded=1;whiteSpace=wrap;html=1;" parent="gqEKXiIxU9d6-bgGEvHK-8" vertex="1">
          <mxGeometry width="120" height="120" as="geometry" />
        </mxCell>
        <mxCell id="gqEKXiIxU9d6-bgGEvHK-6" value="" style="image;html=1;image=img/lib/clip_art/people/Suit_Woman_Green_Black_128x128.png" parent="gqEKXiIxU9d6-bgGEvHK-8" vertex="1">
          <mxGeometry width="120" height="120" as="geometry" />
        </mxCell>
        <mxCell id="gqEKXiIxU9d6-bgGEvHK-15" value="" style="rounded=1;whiteSpace=wrap;html=1;" parent="Gxb5l-fuCvO7nxLd9IKh-2" vertex="1">
          <mxGeometry x="435" y="255" width="120" height="120" as="geometry" />
        </mxCell>
        <mxCell id="gqEKXiIxU9d6-bgGEvHK-12" value="" style="image;html=1;image=img/lib/clip_art/people/Suit_Man_128x128.png" parent="Gxb5l-fuCvO7nxLd9IKh-2" vertex="1">
          <mxGeometry x="435" y="255" width="120" height="120" as="geometry" />
        </mxCell>
        <mxCell id="gqEKXiIxU9d6-bgGEvHK-16" value="" style="rounded=1;whiteSpace=wrap;html=1;fillOpacity=100;" parent="Gxb5l-fuCvO7nxLd9IKh-2" vertex="1">
          <mxGeometry x="625" y="415" width="120" height="120" as="geometry" />
        </mxCell>
        <mxCell id="gqEKXiIxU9d6-bgGEvHK-13" value="" style="image;html=1;image=img/lib/clip_art/people/Suit_Man_Green_128x128.png" parent="Gxb5l-fuCvO7nxLd9IKh-2" vertex="1">
          <mxGeometry x="625" y="415" width="120" height="120" as="geometry" />
        </mxCell>
        <mxCell id="gqEKXiIxU9d6-bgGEvHK-17" value="" style="rounded=1;whiteSpace=wrap;html=1;" parent="Gxb5l-fuCvO7nxLd9IKh-2" vertex="1">
          <mxGeometry x="625" y="255" width="120" height="120" as="geometry" />
        </mxCell>
        <mxCell id="gqEKXiIxU9d6-bgGEvHK-14" value="" style="image;html=1;image=img/lib/clip_art/people/Suit_Man_Black_128x128.png" parent="Gxb5l-fuCvO7nxLd9IKh-2" vertex="1">
          <mxGeometry x="625" y="255" width="120" height="120" as="geometry" />
        </mxCell>
        <mxCell id="HqDzq2W142kmG3xamLHf-0" value="" style="group" vertex="1" connectable="0" parent="Gxb5l-fuCvO7nxLd9IKh-1">
          <mxGeometry x="80" y="760" width="965" height="45" as="geometry" />
        </mxCell>
        <mxCell id="HqDzq2W142kmG3xamLHf-1" value="" style="group" vertex="1" connectable="0" parent="HqDzq2W142kmG3xamLHf-0">
          <mxGeometry x="5" width="960" height="45" as="geometry" />
        </mxCell>
        <mxCell id="HqDzq2W142kmG3xamLHf-2" value="&lt;h1&gt;&lt;span style=&quot;color: rgb(255, 255, 255); background-color: initial; font-size: 12px; font-weight: normal;&quot;&gt;Política de Cookies&lt;/span&gt;&lt;/h1&gt;" style="text;html=1;strokeColor=none;fillColor=none;spacing=5;spacingTop=-20;whiteSpace=wrap;overflow=hidden;rounded=0;" vertex="1" parent="HqDzq2W142kmG3xamLHf-1">
          <mxGeometry x="170" width="180" height="45" as="geometry" />
        </mxCell>
        <mxCell id="HqDzq2W142kmG3xamLHf-3" value="" style="group" vertex="1" connectable="0" parent="HqDzq2W142kmG3xamLHf-1">
          <mxGeometry width="960" height="45" as="geometry" />
        </mxCell>
        <mxCell id="HqDzq2W142kmG3xamLHf-4" value="" style="endArrow=none;html=1;rounded=0;strokeColor=#ffffff;entryX=0.965;entryY=0.922;entryDx=0;entryDy=0;entryPerimeter=0;" edge="1" parent="HqDzq2W142kmG3xamLHf-3">
          <mxGeometry width="50" height="50" relative="1" as="geometry">
            <mxPoint y="0.4800000000000182" as="sourcePoint" />
            <mxPoint x="930.3499999999999" as="targetPoint" />
          </mxGeometry>
        </mxCell>
        <mxCell id="HqDzq2W142kmG3xamLHf-5" value="&lt;h1&gt;&lt;span style=&quot;color: rgb(255, 255, 255); background-color: initial; font-size: 12px; font-weight: normal;&quot;&gt;Derechos reservados&lt;/span&gt;&lt;/h1&gt;" style="text;html=1;strokeColor=none;fillColor=none;spacing=5;spacingTop=-20;whiteSpace=wrap;overflow=hidden;rounded=0;" vertex="1" parent="HqDzq2W142kmG3xamLHf-3">
          <mxGeometry x="780" width="180" height="45" as="geometry" />
        </mxCell>
        <mxCell id="HqDzq2W142kmG3xamLHf-6" value="&lt;h1&gt;&lt;span style=&quot;color: rgb(255, 255, 255); background-color: initial; font-size: 12px; font-weight: normal;&quot;&gt;Política de Manejo de Datos&lt;/span&gt;&lt;/h1&gt;" style="text;html=1;strokeColor=none;fillColor=none;spacing=5;spacingTop=-20;whiteSpace=wrap;overflow=hidden;rounded=0;" vertex="1" parent="HqDzq2W142kmG3xamLHf-3">
          <mxGeometry x="-5" width="180" height="45" as="geometry" />
        </mxCell>
      </root>
    </mxGraphModel>
  </diagram>
  <diagram name="ActividadesAcademicas" id="DA6ZWog_FzDCEek-sU1N">
    <mxGraphModel dx="1475" dy="1214" grid="1" gridSize="10" guides="1" tooltips="1" connect="1" arrows="1" fold="1" page="1" pageScale="1" pageWidth="1100" pageHeight="850" math="0" shadow="0">
      <root>
        <mxCell id="UwB8zGFD317RaUCj8i9D-0" />
        <mxCell id="UwB8zGFD317RaUCj8i9D-1" parent="UwB8zGFD317RaUCj8i9D-0" />
        <mxCell id="UwB8zGFD317RaUCj8i9D-2" value="" style="strokeWidth=1;shadow=0;dashed=0;align=center;html=1;shape=mxgraph.mockup.containers.browserWindow;rSize=0;strokeColor=#666666;strokeColor2=#008cff;strokeColor3=#c4c4c4;mainText=,;recursiveResize=0;" parent="UwB8zGFD317RaUCj8i9D-1" vertex="1">
          <mxGeometry x="55" y="125" width="990" height="675" as="geometry" />
        </mxCell>
        <mxCell id="UwB8zGFD317RaUCj8i9D-3" value="Page 1" style="strokeWidth=1;shadow=0;dashed=0;align=center;html=1;shape=mxgraph.mockup.containers.anchor;fontSize=17;fontColor=#666666;align=left;whiteSpace=wrap;" parent="UwB8zGFD317RaUCj8i9D-2" vertex="1">
          <mxGeometry x="60" y="12" width="110" height="26" as="geometry" />
        </mxCell>
        <mxCell id="UwB8zGFD317RaUCj8i9D-4" value="https://www.medicosascociados.com/ActividadesAcademicas" style="strokeWidth=1;shadow=0;dashed=0;align=center;html=1;shape=mxgraph.mockup.containers.anchor;rSize=0;fontSize=17;fontColor=#666666;align=left;" parent="UwB8zGFD317RaUCj8i9D-2" vertex="1">
          <mxGeometry x="130" y="60" width="250" height="26" as="geometry" />
        </mxCell>
        <mxCell id="UwB8zGFD317RaUCj8i9D-5" value="" style="rounded=0;whiteSpace=wrap;html=1;fillColor=#003F69;" parent="UwB8zGFD317RaUCj8i9D-2" vertex="1">
          <mxGeometry y="110" width="990" height="570" as="geometry" />
        </mxCell>
        <mxCell id="UwB8zGFD317RaUCj8i9D-6" value="&lt;font style=&quot;font-size: 12px;&quot;&gt;CONTÁCTENOS&lt;/font&gt;" style="strokeWidth=1;shadow=0;dashed=0;align=center;html=1;shape=mxgraph.mockup.buttons.button;strokeColor=#666666;fontColor=#ffffff;mainText=;buttonStyle=round;fontSize=17;fontStyle=1;fillColor=#106b87;whiteSpace=wrap;" parent="UwB8zGFD317RaUCj8i9D-2" vertex="1">
          <mxGeometry x="840" y="110" width="150" height="50" as="geometry" />
        </mxCell>
        <mxCell id="UwB8zGFD317RaUCj8i9D-7" value="" style="strokeWidth=1;shadow=0;dashed=0;align=center;html=1;shape=mxgraph.mockup.rrect;rSize=10;fillColor=#ffffff;strokeColor=#666666;" parent="UwB8zGFD317RaUCj8i9D-2" vertex="1">
          <mxGeometry x="340" y="110" width="500" height="50" as="geometry" />
        </mxCell>
        <mxCell id="UwB8zGFD317RaUCj8i9D-8" value="&lt;font color=&quot;#ffffff&quot; style=&quot;font-size: 12px;&quot;&gt;EQUIPO PROFESIONAL&lt;span style=&quot;white-space: pre;&quot;&gt;&#x9;&lt;/span&gt;&lt;/font&gt;" style="strokeColor=#6C8EBF;fillColor=#106B87;strokeWidth=1;shadow=0;dashed=0;align=center;html=1;shape=mxgraph.mockup.rrect;rSize=0;fontSize=17;fontStyle=1;resizeHeight=1;whiteSpace=wrap;" parent="UwB8zGFD317RaUCj8i9D-7" vertex="1">
          <mxGeometry width="125" height="50" relative="1" as="geometry">
            <mxPoint x="125" as="offset" />
          </mxGeometry>
        </mxCell>
        <mxCell id="UwB8zGFD317RaUCj8i9D-9" value="&lt;font color=&quot;#ffffff&quot; style=&quot;font-size: 12px;&quot;&gt;ACTIVIDADES ACADÉMICAS&lt;/font&gt;" style="strokeColor=#D6B656;fillColor=#260d33;strokeWidth=1;shadow=0;dashed=0;align=center;html=1;shape=mxgraph.mockup.rrect;rSize=0;fontSize=17;fontStyle=1;resizeHeight=1;whiteSpace=wrap;" parent="UwB8zGFD317RaUCj8i9D-7" vertex="1">
          <mxGeometry width="125" height="50" relative="1" as="geometry">
            <mxPoint x="250" as="offset" />
          </mxGeometry>
        </mxCell>
        <mxCell id="UwB8zGFD317RaUCj8i9D-10" value="&lt;font color=&quot;#ffffff&quot; style=&quot;font-size: 12px;&quot;&gt;INGRESO USUARIOS&lt;/font&gt;" style="strokeColor=#6c8ebf;fillColor=#106B87;strokeWidth=1;shadow=0;dashed=0;align=center;html=1;shape=mxgraph.mockup.rightButton;rSize=10;fontSize=17;fontStyle=1;resizeHeight=1;whiteSpace=wrap;" parent="UwB8zGFD317RaUCj8i9D-7" vertex="1">
          <mxGeometry x="1" width="125" height="50" relative="1" as="geometry">
            <mxPoint x="-125" as="offset" />
          </mxGeometry>
        </mxCell>
        <mxCell id="UwB8zGFD317RaUCj8i9D-11" value="&lt;font style=&quot;font-size: 12px;&quot;&gt;PRINCIPAL&lt;/font&gt;" style="strokeWidth=1;shadow=0;dashed=0;align=center;html=1;shape=mxgraph.mockup.leftButton;rSize=10;fontSize=17;fontColor=#ffffff;fontStyle=1;fillColor=#106B87;strokeColor=#6C8EBF;resizeHeight=1;whiteSpace=wrap;" parent="UwB8zGFD317RaUCj8i9D-7" vertex="1">
          <mxGeometry width="125" height="50" relative="1" as="geometry" />
        </mxCell>
        <mxCell id="UwB8zGFD317RaUCj8i9D-12" value="&lt;font face=&quot;Tahoma&quot; color=&quot;#ffffff&quot;&gt;&lt;span style=&quot;font-size: 37px;&quot;&gt;ACTIVIDADES ACADÉMICAS&lt;/span&gt;&lt;/font&gt;" style="text;strokeColor=none;fillColor=none;html=1;fontSize=24;fontStyle=1;verticalAlign=middle;align=center;" parent="UwB8zGFD317RaUCj8i9D-2" vertex="1">
          <mxGeometry x="15" y="180" width="545" height="40" as="geometry" />
        </mxCell>
        <mxCell id="-r3y-3qb8UkBvgQBWbz2-0" value="&lt;h1&gt;&lt;font color=&quot;#ffffff&quot;&gt;Heading&lt;/font&gt;&lt;/h1&gt;&lt;p&gt;&lt;font color=&quot;#ffffff&quot;&gt;Lorem ipsum dolor sit amet, consectetur adipisicing elit, sed do eiusmod tempor incididunt ut labore et dolore magna aliqua.&lt;/font&gt;&lt;/p&gt;" style="text;html=1;strokeColor=none;fillColor=none;spacing=5;spacingTop=-20;whiteSpace=wrap;overflow=hidden;rounded=0;" parent="UwB8zGFD317RaUCj8i9D-2" vertex="1">
          <mxGeometry x="95" y="265" width="425" height="120" as="geometry" />
        </mxCell>
        <mxCell id="-r3y-3qb8UkBvgQBWbz2-1" value="&lt;h1&gt;&lt;font color=&quot;#ffffff&quot;&gt;Heading&lt;/font&gt;&lt;/h1&gt;&lt;p&gt;&lt;font color=&quot;#ffffff&quot;&gt;Lorem ipsum dolor sit amet, consectetur adipisicing elit, sed do eiusmod tempor incididunt ut labore et dolore magna aliqua.&lt;/font&gt;&lt;/p&gt;" style="text;html=1;strokeColor=none;fillColor=none;spacing=5;spacingTop=-20;whiteSpace=wrap;overflow=hidden;rounded=0;" parent="UwB8zGFD317RaUCj8i9D-2" vertex="1">
          <mxGeometry x="95" y="385" width="425" height="120" as="geometry" />
        </mxCell>
        <mxCell id="-r3y-3qb8UkBvgQBWbz2-2" value="" style="verticalLabelPosition=bottom;shadow=0;dashed=0;align=center;html=1;verticalAlign=top;strokeWidth=1;shape=mxgraph.mockup.graphics.pieChart;strokeColor=#008cff;parts=10,20,35;partColors=#e0e0e0,#d0d0d0,#c0c0c0,#b0b0b0,#a0a0a0;strokeWidth=2;" parent="UwB8zGFD317RaUCj8i9D-2" vertex="1">
          <mxGeometry x="640" y="285" width="200" height="200" as="geometry" />
        </mxCell>
        <mxCell id="xXp2cgNPOOBpPAMmwJ8V-0" value="" style="group" vertex="1" connectable="0" parent="UwB8zGFD317RaUCj8i9D-1">
          <mxGeometry x="80" y="760" width="965" height="45" as="geometry" />
        </mxCell>
        <mxCell id="xXp2cgNPOOBpPAMmwJ8V-1" value="" style="group" vertex="1" connectable="0" parent="xXp2cgNPOOBpPAMmwJ8V-0">
          <mxGeometry x="5" width="960" height="45" as="geometry" />
        </mxCell>
        <mxCell id="xXp2cgNPOOBpPAMmwJ8V-2" value="&lt;h1&gt;&lt;span style=&quot;color: rgb(255, 255, 255); background-color: initial; font-size: 12px; font-weight: normal;&quot;&gt;Política de Cookies&lt;/span&gt;&lt;/h1&gt;" style="text;html=1;strokeColor=none;fillColor=none;spacing=5;spacingTop=-20;whiteSpace=wrap;overflow=hidden;rounded=0;" vertex="1" parent="xXp2cgNPOOBpPAMmwJ8V-1">
          <mxGeometry x="170" width="180" height="45" as="geometry" />
        </mxCell>
        <mxCell id="xXp2cgNPOOBpPAMmwJ8V-3" value="" style="group" vertex="1" connectable="0" parent="xXp2cgNPOOBpPAMmwJ8V-1">
          <mxGeometry width="960" height="45" as="geometry" />
        </mxCell>
        <mxCell id="xXp2cgNPOOBpPAMmwJ8V-4" value="" style="endArrow=none;html=1;rounded=0;strokeColor=#ffffff;entryX=0.965;entryY=0.922;entryDx=0;entryDy=0;entryPerimeter=0;" edge="1" parent="xXp2cgNPOOBpPAMmwJ8V-3">
          <mxGeometry width="50" height="50" relative="1" as="geometry">
            <mxPoint y="0.4800000000000182" as="sourcePoint" />
            <mxPoint x="930.3499999999999" as="targetPoint" />
          </mxGeometry>
        </mxCell>
        <mxCell id="xXp2cgNPOOBpPAMmwJ8V-5" value="&lt;h1&gt;&lt;span style=&quot;color: rgb(255, 255, 255); background-color: initial; font-size: 12px; font-weight: normal;&quot;&gt;Derechos reservados&lt;/span&gt;&lt;/h1&gt;" style="text;html=1;strokeColor=none;fillColor=none;spacing=5;spacingTop=-20;whiteSpace=wrap;overflow=hidden;rounded=0;" vertex="1" parent="xXp2cgNPOOBpPAMmwJ8V-3">
          <mxGeometry x="780" width="180" height="45" as="geometry" />
        </mxCell>
        <mxCell id="xXp2cgNPOOBpPAMmwJ8V-6" value="&lt;h1&gt;&lt;span style=&quot;color: rgb(255, 255, 255); background-color: initial; font-size: 12px; font-weight: normal;&quot;&gt;Política de Manejo de Datos&lt;/span&gt;&lt;/h1&gt;" style="text;html=1;strokeColor=none;fillColor=none;spacing=5;spacingTop=-20;whiteSpace=wrap;overflow=hidden;rounded=0;" vertex="1" parent="xXp2cgNPOOBpPAMmwJ8V-3">
          <mxGeometry x="-5" width="180" height="45" as="geometry" />
        </mxCell>
      </root>
    </mxGraphModel>
  </diagram>
  <diagram name="IngresoUsuarios" id="6Tk-_kNslGvK3lyZQ8n-">
    <mxGraphModel dx="6285" dy="3885" grid="1" gridSize="10" guides="1" tooltips="1" connect="1" arrows="1" fold="1" page="1" pageScale="1" pageWidth="1100" pageHeight="850" math="0" shadow="0">
      <root>
        <mxCell id="kIP4dMhAOqKSTnuw4oQm-0" />
        <mxCell id="kIP4dMhAOqKSTnuw4oQm-1" parent="kIP4dMhAOqKSTnuw4oQm-0" />
        <mxCell id="kIP4dMhAOqKSTnuw4oQm-2" value="" style="strokeWidth=1;shadow=0;dashed=0;align=center;html=1;shape=mxgraph.mockup.containers.browserWindow;rSize=0;strokeColor=#666666;strokeColor2=#008cff;strokeColor3=#c4c4c4;mainText=,;recursiveResize=0;" parent="kIP4dMhAOqKSTnuw4oQm-1" vertex="1">
          <mxGeometry x="55" y="125" width="990" height="645" as="geometry" />
        </mxCell>
        <mxCell id="kIP4dMhAOqKSTnuw4oQm-3" value="Page 1" style="strokeWidth=1;shadow=0;dashed=0;align=center;html=1;shape=mxgraph.mockup.containers.anchor;fontSize=17;fontColor=#666666;align=left;whiteSpace=wrap;" parent="kIP4dMhAOqKSTnuw4oQm-2" vertex="1">
          <mxGeometry x="60" y="12" width="110" height="26" as="geometry" />
        </mxCell>
        <mxCell id="kIP4dMhAOqKSTnuw4oQm-4" value="https://www.medicosascociados.com/IngresoUsuarios" style="strokeWidth=1;shadow=0;dashed=0;align=center;html=1;shape=mxgraph.mockup.containers.anchor;rSize=0;fontSize=17;fontColor=#666666;align=left;" parent="kIP4dMhAOqKSTnuw4oQm-2" vertex="1">
          <mxGeometry x="130" y="60" width="470" height="26" as="geometry" />
        </mxCell>
        <mxCell id="kIP4dMhAOqKSTnuw4oQm-5" value="" style="rounded=0;whiteSpace=wrap;html=1;fillColor=#003F69;" parent="kIP4dMhAOqKSTnuw4oQm-2" vertex="1">
          <mxGeometry y="110" width="990" height="540" as="geometry" />
        </mxCell>
        <mxCell id="kIP4dMhAOqKSTnuw4oQm-6" value="&lt;font style=&quot;font-size: 12px;&quot;&gt;CONTÁCTENOS&lt;/font&gt;" style="strokeWidth=1;shadow=0;dashed=0;align=center;html=1;shape=mxgraph.mockup.buttons.button;strokeColor=#666666;fontColor=#ffffff;mainText=;buttonStyle=round;fontSize=17;fontStyle=1;fillColor=#106b87;whiteSpace=wrap;" parent="kIP4dMhAOqKSTnuw4oQm-2" vertex="1">
          <mxGeometry x="840" y="110" width="150" height="50" as="geometry" />
        </mxCell>
        <mxCell id="kIP4dMhAOqKSTnuw4oQm-7" value="" style="strokeWidth=1;shadow=0;dashed=0;align=center;html=1;shape=mxgraph.mockup.rrect;rSize=10;fillColor=#ffffff;strokeColor=#666666;" parent="kIP4dMhAOqKSTnuw4oQm-2" vertex="1">
          <mxGeometry x="340" y="110" width="500" height="50" as="geometry" />
        </mxCell>
        <mxCell id="kIP4dMhAOqKSTnuw4oQm-8" value="&lt;font color=&quot;#ffffff&quot; style=&quot;font-size: 12px;&quot;&gt;EQUIPO PROFESIONAL&lt;span style=&quot;white-space: pre;&quot;&gt;&#x9;&lt;/span&gt;&lt;/font&gt;" style="strokeColor=#6C8EBF;fillColor=#106B87;strokeWidth=1;shadow=0;dashed=0;align=center;html=1;shape=mxgraph.mockup.rrect;rSize=0;fontSize=17;fontStyle=1;resizeHeight=1;whiteSpace=wrap;" parent="kIP4dMhAOqKSTnuw4oQm-7" vertex="1">
          <mxGeometry width="125" height="50" relative="1" as="geometry">
            <mxPoint x="125" as="offset" />
          </mxGeometry>
        </mxCell>
        <mxCell id="kIP4dMhAOqKSTnuw4oQm-9" value="&lt;font color=&quot;#ffffff&quot; style=&quot;font-size: 12px;&quot;&gt;ACTIVIDADES ACADÉMICAS&lt;/font&gt;" style="strokeColor=#6C8EBF;fillColor=#106B87;strokeWidth=1;shadow=0;dashed=0;align=center;html=1;shape=mxgraph.mockup.rrect;rSize=0;fontSize=17;fontStyle=1;resizeHeight=1;whiteSpace=wrap;" parent="kIP4dMhAOqKSTnuw4oQm-7" vertex="1">
          <mxGeometry width="125" height="50" relative="1" as="geometry">
            <mxPoint x="250" as="offset" />
          </mxGeometry>
        </mxCell>
        <mxCell id="kIP4dMhAOqKSTnuw4oQm-10" value="&lt;font color=&quot;#ffffff&quot; style=&quot;font-size: 12px;&quot;&gt;INGRESO USUARIOS&lt;/font&gt;" style="strokeColor=#D6B656;fillColor=#260D33;strokeWidth=1;shadow=0;dashed=0;align=center;html=1;shape=mxgraph.mockup.rightButton;rSize=10;fontSize=17;fontStyle=1;resizeHeight=1;whiteSpace=wrap;" parent="kIP4dMhAOqKSTnuw4oQm-7" vertex="1">
          <mxGeometry x="1" width="125" height="50" relative="1" as="geometry">
            <mxPoint x="-125" as="offset" />
          </mxGeometry>
        </mxCell>
        <mxCell id="kIP4dMhAOqKSTnuw4oQm-11" value="&lt;font style=&quot;font-size: 12px;&quot;&gt;PRINCIPAL&lt;/font&gt;" style="strokeWidth=1;shadow=0;dashed=0;align=center;html=1;shape=mxgraph.mockup.leftButton;rSize=10;fontSize=17;fontColor=#ffffff;fontStyle=1;fillColor=#106B87;strokeColor=#6C8EBF;resizeHeight=1;whiteSpace=wrap;" parent="kIP4dMhAOqKSTnuw4oQm-7" vertex="1">
          <mxGeometry width="125" height="50" relative="1" as="geometry" />
        </mxCell>
        <mxCell id="YGp0Md6GK6tel3arUP7F-39" value="" style="strokeWidth=1;shadow=0;dashed=0;align=center;html=1;shape=mxgraph.mockup.forms.rrect;rSize=0;strokeColor=#999999;fillColor=#157A8C;" parent="kIP4dMhAOqKSTnuw4oQm-2" vertex="1">
          <mxGeometry x="395" y="225" width="200" height="300" as="geometry" />
        </mxCell>
        <mxCell id="YGp0Md6GK6tel3arUP7F-40" value="&lt;font color=&quot;#ff9933&quot;&gt;ZONA USUARIOS&lt;/font&gt;" style="strokeWidth=1;shadow=0;dashed=0;align=center;html=1;shape=mxgraph.mockup.forms.anchor;fontSize=12;fontColor=#666666;align=left;resizeWidth=1;spacingLeft=0;" parent="YGp0Md6GK6tel3arUP7F-39" vertex="1">
          <mxGeometry width="100" height="20" relative="1" as="geometry">
            <mxPoint x="50" y="10" as="offset" />
          </mxGeometry>
        </mxCell>
        <mxCell id="YGp0Md6GK6tel3arUP7F-41" value="" style="shape=line;strokeColor=#ddeeff;strokeWidth=2;html=1;resizeWidth=1;" parent="YGp0Md6GK6tel3arUP7F-39" vertex="1">
          <mxGeometry width="180" height="10" relative="1" as="geometry">
            <mxPoint x="10" y="30" as="offset" />
          </mxGeometry>
        </mxCell>
        <mxCell id="YGp0Md6GK6tel3arUP7F-42" value="&lt;font color=&quot;#ff9933&quot;&gt;Usuario&lt;/font&gt;" style="strokeWidth=1;shadow=0;dashed=0;align=center;html=1;shape=mxgraph.mockup.forms.anchor;fontSize=12;fontColor=#666666;align=left;resizeWidth=1;spacingLeft=0;" parent="YGp0Md6GK6tel3arUP7F-39" vertex="1">
          <mxGeometry width="100" height="20" relative="1" as="geometry">
            <mxPoint x="10" y="40" as="offset" />
          </mxGeometry>
        </mxCell>
        <mxCell id="YGp0Md6GK6tel3arUP7F-43" value="johndoe" style="strokeWidth=1;shadow=0;dashed=0;align=center;html=1;shape=mxgraph.mockup.forms.rrect;rSize=0;strokeColor=#999999;fontColor=#666666;align=left;spacingLeft=5;resizeWidth=1;" parent="YGp0Md6GK6tel3arUP7F-39" vertex="1">
          <mxGeometry width="150" height="25" relative="1" as="geometry">
            <mxPoint x="10" y="60" as="offset" />
          </mxGeometry>
        </mxCell>
        <mxCell id="YGp0Md6GK6tel3arUP7F-44" value="&lt;font color=&quot;#ff9933&quot;&gt;Contraseña&lt;/font&gt;" style="strokeWidth=1;shadow=0;dashed=0;align=center;html=1;shape=mxgraph.mockup.forms.anchor;fontSize=12;fontColor=#666666;align=left;resizeWidth=1;spacingLeft=0;" parent="YGp0Md6GK6tel3arUP7F-39" vertex="1">
          <mxGeometry width="100" height="20" relative="1" as="geometry">
            <mxPoint x="10" y="95" as="offset" />
          </mxGeometry>
        </mxCell>
        <mxCell id="YGp0Md6GK6tel3arUP7F-45" value="********" style="strokeWidth=1;shadow=0;dashed=0;align=center;html=1;shape=mxgraph.mockup.forms.rrect;rSize=0;strokeColor=#999999;fontColor=#666666;align=left;spacingLeft=5;resizeWidth=1;" parent="YGp0Md6GK6tel3arUP7F-39" vertex="1">
          <mxGeometry width="150" height="25" relative="1" as="geometry">
            <mxPoint x="10" y="115" as="offset" />
          </mxGeometry>
        </mxCell>
        <mxCell id="YGp0Md6GK6tel3arUP7F-46" value="INGRESO" style="strokeWidth=1;shadow=0;dashed=0;align=center;html=1;shape=mxgraph.mockup.forms.rrect;rSize=5;strokeColor=none;fontColor=#ffffff;fillColor=#B3ACA4;fontSize=16;fontStyle=1;" parent="YGp0Md6GK6tel3arUP7F-39" vertex="1">
          <mxGeometry y="1" width="80" height="30" relative="1" as="geometry">
            <mxPoint x="60" y="-150" as="offset" />
          </mxGeometry>
        </mxCell>
        <mxCell id="YGp0Md6GK6tel3arUP7F-47" value="¿Olvidó su contraseña?" style="strokeWidth=1;shadow=0;dashed=0;align=center;html=1;shape=mxgraph.mockup.forms.anchor;fontSize=12;fontColor=#9999ff;align=left;spacingLeft=0;fontStyle=4;resizeWidth=1;" parent="YGp0Md6GK6tel3arUP7F-39" vertex="1">
          <mxGeometry y="1" width="150" height="20" relative="1" as="geometry">
            <mxPoint x="25" y="-110" as="offset" />
          </mxGeometry>
        </mxCell>
        <mxCell id="YGp0Md6GK6tel3arUP7F-48" value="" style="shape=line;strokeColor=#ddeeff;strokeWidth=2;html=1;resizeWidth=1;" parent="YGp0Md6GK6tel3arUP7F-39" vertex="1">
          <mxGeometry y="1" width="180" height="10" relative="1" as="geometry">
            <mxPoint x="10" y="-90" as="offset" />
          </mxGeometry>
        </mxCell>
        <mxCell id="YGp0Md6GK6tel3arUP7F-49" value="&lt;font color=&quot;#ff9933&quot;&gt;Nuevo Usuario&lt;/font&gt;" style="strokeWidth=1;shadow=0;dashed=0;align=center;html=1;shape=mxgraph.mockup.forms.anchor;fontSize=12;fontColor=#666666;align=left;spacingLeft=0;resizeWidth=1;" parent="YGp0Md6GK6tel3arUP7F-39" vertex="1">
          <mxGeometry y="1" width="150" height="20" relative="1" as="geometry">
            <mxPoint x="10" y="-70" as="offset" />
          </mxGeometry>
        </mxCell>
        <mxCell id="YGp0Md6GK6tel3arUP7F-50" value="REGISTRO" style="strokeWidth=1;shadow=0;dashed=0;align=center;html=1;shape=mxgraph.mockup.forms.rrect;rSize=5;strokeColor=none;fontColor=#ffffff;fillColor=#B3ACA4;fontSize=16;fontStyle=1;" parent="YGp0Md6GK6tel3arUP7F-39" vertex="1">
          <mxGeometry y="1" width="80" height="30" relative="1" as="geometry">
            <mxPoint x="60" y="-50" as="offset" />
          </mxGeometry>
        </mxCell>
        <mxCell id="cz-m4-JgYKLy-7QzXDuM-0" value="" style="group" vertex="1" connectable="0" parent="kIP4dMhAOqKSTnuw4oQm-1">
          <mxGeometry x="68" y="730" width="965" height="45" as="geometry" />
        </mxCell>
        <mxCell id="cz-m4-JgYKLy-7QzXDuM-1" value="" style="group" vertex="1" connectable="0" parent="cz-m4-JgYKLy-7QzXDuM-0">
          <mxGeometry x="5" width="960" height="45" as="geometry" />
        </mxCell>
        <mxCell id="cz-m4-JgYKLy-7QzXDuM-2" value="&lt;h1&gt;&lt;span style=&quot;color: rgb(255, 255, 255); background-color: initial; font-size: 12px; font-weight: normal;&quot;&gt;Política de Cookies&lt;/span&gt;&lt;/h1&gt;" style="text;html=1;strokeColor=none;fillColor=none;spacing=5;spacingTop=-20;whiteSpace=wrap;overflow=hidden;rounded=0;" vertex="1" parent="cz-m4-JgYKLy-7QzXDuM-1">
          <mxGeometry x="170" width="180" height="45" as="geometry" />
        </mxCell>
        <mxCell id="cz-m4-JgYKLy-7QzXDuM-3" value="" style="group" vertex="1" connectable="0" parent="cz-m4-JgYKLy-7QzXDuM-1">
          <mxGeometry width="960" height="45" as="geometry" />
        </mxCell>
        <mxCell id="cz-m4-JgYKLy-7QzXDuM-4" value="" style="endArrow=none;html=1;rounded=0;strokeColor=#ffffff;entryX=0.965;entryY=0.922;entryDx=0;entryDy=0;entryPerimeter=0;" edge="1" parent="cz-m4-JgYKLy-7QzXDuM-3">
          <mxGeometry width="50" height="50" relative="1" as="geometry">
            <mxPoint y="0.4800000000000182" as="sourcePoint" />
            <mxPoint x="930.3499999999999" as="targetPoint" />
          </mxGeometry>
        </mxCell>
        <mxCell id="cz-m4-JgYKLy-7QzXDuM-5" value="&lt;h1&gt;&lt;span style=&quot;color: rgb(255, 255, 255); background-color: initial; font-size: 12px; font-weight: normal;&quot;&gt;Derechos reservados&lt;/span&gt;&lt;/h1&gt;" style="text;html=1;strokeColor=none;fillColor=none;spacing=5;spacingTop=-20;whiteSpace=wrap;overflow=hidden;rounded=0;" vertex="1" parent="cz-m4-JgYKLy-7QzXDuM-3">
          <mxGeometry x="780" width="180" height="45" as="geometry" />
        </mxCell>
        <mxCell id="cz-m4-JgYKLy-7QzXDuM-6" value="&lt;h1&gt;&lt;span style=&quot;color: rgb(255, 255, 255); background-color: initial; font-size: 12px; font-weight: normal;&quot;&gt;Política de Manejo de Datos&lt;/span&gt;&lt;/h1&gt;" style="text;html=1;strokeColor=none;fillColor=none;spacing=5;spacingTop=-20;whiteSpace=wrap;overflow=hidden;rounded=0;" vertex="1" parent="cz-m4-JgYKLy-7QzXDuM-3">
          <mxGeometry x="-5" width="180" height="45" as="geometry" />
        </mxCell>
        <mxCell id="5xte5br2Lsbq8j15-HT_-0" value="" style="strokeWidth=1;shadow=0;dashed=0;align=center;html=1;shape=mxgraph.mockup.containers.browserWindow;rSize=0;strokeColor=#666666;strokeColor2=#008cff;strokeColor3=#c4c4c4;mainText=,;recursiveResize=0;" vertex="1" parent="kIP4dMhAOqKSTnuw4oQm-1">
          <mxGeometry x="1320" y="-110" width="1020" height="820" as="geometry" />
        </mxCell>
        <mxCell id="5xte5br2Lsbq8j15-HT_-1" value="" style="verticalLabelPosition=bottom;shadow=0;dashed=0;align=center;html=1;verticalAlign=top;strokeWidth=1;shape=mxgraph.mockup.graphics.simpleIcon;strokeColor=#999999;" vertex="1" parent="5xte5br2Lsbq8j15-HT_-0">
          <mxGeometry x="10" y="120" width="1000" height="610" as="geometry" />
        </mxCell>
        <mxCell id="5xte5br2Lsbq8j15-HT_-2" value="Page 1" style="strokeWidth=1;shadow=0;dashed=0;align=center;html=1;shape=mxgraph.mockup.containers.anchor;fontSize=17;fontColor=#666666;align=left;whiteSpace=wrap;" vertex="1" parent="5xte5br2Lsbq8j15-HT_-0">
          <mxGeometry x="60" y="12" width="110" height="26" as="geometry" />
        </mxCell>
        <mxCell id="5xte5br2Lsbq8j15-HT_-3" value="https://www.medicosascociados.com/Registro" style="strokeWidth=1;shadow=0;dashed=0;align=center;html=1;shape=mxgraph.mockup.containers.anchor;rSize=0;fontSize=17;fontColor=#666666;align=left;" vertex="1" parent="5xte5br2Lsbq8j15-HT_-0">
          <mxGeometry x="130" y="60" width="310" height="30" as="geometry" />
        </mxCell>
        <mxCell id="5xte5br2Lsbq8j15-HT_-4" value="Nombres&lt;span style=&quot;white-space: pre;&quot;&gt; &lt;/span&gt;" style="strokeWidth=1;shadow=0;dashed=0;align=left;html=1;shape=mxgraph.mockup.forms.anchor;align=right;spacingRight=2;fontColor=#666666;" vertex="1" parent="5xte5br2Lsbq8j15-HT_-0">
          <mxGeometry x="280" y="280" width="70" height="18" as="geometry" />
        </mxCell>
        <mxCell id="5xte5br2Lsbq8j15-HT_-5" value="" style="strokeWidth=1;shadow=0;dashed=0;align=center;html=1;shape=mxgraph.mockup.forms.rrect;fillColor=#ffffff;rSize=0;fontColor=#666666;align=left;spacingLeft=3;strokeColor=#999999;" vertex="1" parent="5xte5br2Lsbq8j15-HT_-0">
          <mxGeometry x="350" y="280" width="350" height="18" as="geometry" />
        </mxCell>
        <mxCell id="5xte5br2Lsbq8j15-HT_-6" value="Apellidos" style="strokeWidth=1;shadow=0;dashed=0;align=center;html=1;shape=mxgraph.mockup.forms.anchor;align=right;spacingRight=2;fontColor=#666666;" vertex="1" parent="5xte5br2Lsbq8j15-HT_-0">
          <mxGeometry x="280" y="315" width="70" height="18" as="geometry" />
        </mxCell>
        <mxCell id="5xte5br2Lsbq8j15-HT_-7" value="" style="strokeWidth=1;shadow=0;dashed=0;align=center;html=1;shape=mxgraph.mockup.forms.rrect;fillColor=#ffffff;rSize=0;fontColor=#666666;align=left;spacingLeft=3;strokeColor=#999999;" vertex="1" parent="5xte5br2Lsbq8j15-HT_-0">
          <mxGeometry x="350" y="315" width="350" height="18" as="geometry" />
        </mxCell>
        <mxCell id="5xte5br2Lsbq8j15-HT_-8" value="Cédula" style="strokeWidth=1;shadow=0;dashed=0;align=left;html=1;shape=mxgraph.mockup.forms.anchor;align=right;spacingRight=2;fontColor=#666666;" vertex="1" parent="5xte5br2Lsbq8j15-HT_-0">
          <mxGeometry x="300" y="350" width="50" height="18" as="geometry" />
        </mxCell>
        <mxCell id="5xte5br2Lsbq8j15-HT_-9" value="" style="strokeWidth=1;shadow=0;dashed=0;align=center;html=1;shape=mxgraph.mockup.forms.rrect;fillColor=#ffffff;rSize=0;fontColor=#666666;align=left;spacingLeft=3;strokeColor=#999999;" vertex="1" parent="5xte5br2Lsbq8j15-HT_-0">
          <mxGeometry x="350" y="350" width="350" height="18" as="geometry" />
        </mxCell>
        <mxCell id="5xte5br2Lsbq8j15-HT_-10" value="Fecha de nacimiento" style="strokeWidth=1;shadow=0;dashed=0;align=center;html=1;shape=mxgraph.mockup.forms.anchor;align=right;spacingRight=2;fontColor=#666666;" vertex="1" parent="5xte5br2Lsbq8j15-HT_-0">
          <mxGeometry x="300" y="385" width="50" height="18" as="geometry" />
        </mxCell>
        <mxCell id="5xte5br2Lsbq8j15-HT_-11" value="" style="strokeWidth=1;shadow=0;dashed=0;align=center;html=1;shape=mxgraph.mockup.forms.rrect;fillColor=#ffffff;rSize=0;fontColor=#666666;align=left;spacingLeft=3;strokeColor=#999999;" vertex="1" parent="5xte5br2Lsbq8j15-HT_-0">
          <mxGeometry x="350" y="385" width="350" height="18" as="geometry" />
        </mxCell>
        <mxCell id="5xte5br2Lsbq8j15-HT_-13" value="REGISTRARSE" style="strokeWidth=1;shadow=0;dashed=0;align=center;html=1;shape=mxgraph.mockup.containers.rrect;rSize=0;fontSize=16;fontColor=#666666;strokeColor=#c4c4c4;whiteSpace=wrap;fillColor=none;" vertex="1" parent="5xte5br2Lsbq8j15-HT_-0">
          <mxGeometry x="0.75" y="1" width="139.25" height="19" relative="1" as="geometry">
            <mxPoint x="-204" y="-230" as="offset" />
          </mxGeometry>
        </mxCell>
        <mxCell id="5xte5br2Lsbq8j15-HT_-14" value="Borrar" style="strokeWidth=1;shadow=0;dashed=0;align=center;html=1;shape=mxgraph.mockup.containers.rrect;rSize=0;fontSize=16;fontColor=#666666;strokeColor=#c4c4c4;whiteSpace=wrap;fillColor=none;" vertex="1" parent="5xte5br2Lsbq8j15-HT_-0">
          <mxGeometry x="0.25" y="1" width="90" height="25" relative="1" as="geometry">
            <mxPoint x="95" y="-230" as="offset" />
          </mxGeometry>
        </mxCell>
        <mxCell id="5xte5br2Lsbq8j15-HT_-15" value="Home" style="strokeColor=inherit;fillColor=inherit;gradientColor=inherit;strokeWidth=1;shadow=0;dashed=0;align=center;html=1;shape=mxgraph.mockup.forms.rrect;rSize=0;fontSize=17;fontColor=#666666;whiteSpace=wrap;" vertex="1" parent="5xte5br2Lsbq8j15-HT_-0">
          <mxGeometry x="927" y="120" width="83" height="30" as="geometry" />
        </mxCell>
        <mxCell id="5xte5br2Lsbq8j15-HT_-33" value="" style="endArrow=classic;html=1;rounded=0;exitX=0.997;exitY=0.5;exitDx=0;exitDy=0;exitPerimeter=0;" edge="1" parent="5xte5br2Lsbq8j15-HT_-0">
          <mxGeometry width="50" height="50" relative="1" as="geometry">
            <mxPoint x="710" y="321" as="sourcePoint" />
            <mxPoint x="1091" y="230" as="targetPoint" />
          </mxGeometry>
        </mxCell>
        <mxCell id="5xte5br2Lsbq8j15-HT_-16" value="" style="endArrow=classic;html=1;rounded=0;exitX=1.013;exitY=0.5;exitDx=0;exitDy=0;exitPerimeter=0;" edge="1" parent="kIP4dMhAOqKSTnuw4oQm-1" target="5xte5br2Lsbq8j15-HT_-1" source="YGp0Md6GK6tel3arUP7F-50">
          <mxGeometry relative="1" as="geometry">
            <mxPoint x="1030" y="449" as="sourcePoint" />
            <mxPoint x="1450" y="220" as="targetPoint" />
          </mxGeometry>
        </mxCell>
        <mxCell id="5xte5br2Lsbq8j15-HT_-17" value="Haciendo Click en REGISTRO cambia de página y lo dirige a&amp;nbsp;" style="edgeLabel;resizable=0;html=1;align=center;verticalAlign=middle;" connectable="0" vertex="1" parent="5xte5br2Lsbq8j15-HT_-16">
          <mxGeometry relative="1" as="geometry">
            <mxPoint x="105" y="-14" as="offset" />
          </mxGeometry>
        </mxCell>
        <mxCell id="5xte5br2Lsbq8j15-HT_-18" value="No incluya comas ni puntos.&lt;br&gt;Campo no debe estar vacío" style="strokeWidth=1;shadow=0;dashed=0;align=center;html=1;shape=mxgraph.mockup.containers.rrect;rSize=0;strokeColor=#666666;fontColor=#666666;fontSize=17;verticalAlign=top;whiteSpace=wrap;fillColor=#ffffff;spacingTop=32;" vertex="1" parent="kIP4dMhAOqKSTnuw4oQm-1">
          <mxGeometry x="2412" y="200" width="240" height="129" as="geometry" />
        </mxCell>
        <mxCell id="5xte5br2Lsbq8j15-HT_-19" value="Error" style="strokeWidth=1;shadow=0;dashed=0;align=center;html=1;shape=mxgraph.mockup.containers.rrect;rSize=0;fontSize=17;fontColor=#666666;strokeColor=#666666;align=left;spacingLeft=8;fillColor=#ffffff;resizeWidth=1;whiteSpace=wrap;" vertex="1" parent="5xte5br2Lsbq8j15-HT_-18">
          <mxGeometry width="240" height="30" relative="1" as="geometry" />
        </mxCell>
        <mxCell id="5xte5br2Lsbq8j15-HT_-20" value="" style="shape=ellipse;strokeColor=#008cff;resizable=0;fillColor=none;html=1;" vertex="1" parent="5xte5br2Lsbq8j15-HT_-19">
          <mxGeometry x="1" y="0.5" width="20" height="20" relative="1" as="geometry">
            <mxPoint x="-25" y="-10" as="offset" />
          </mxGeometry>
        </mxCell>
        <mxCell id="5xte5br2Lsbq8j15-HT_-21" value="OK" style="strokeWidth=1;shadow=0;dashed=0;align=center;html=1;shape=mxgraph.mockup.containers.rrect;rSize=0;fontSize=16;fontColor=#666666;strokeColor=#c4c4c4;resizable=0;whiteSpace=wrap;fillColor=#ffffff;" vertex="1" parent="5xte5br2Lsbq8j15-HT_-18">
          <mxGeometry x="0.5" y="1" width="120" height="25" relative="1" as="geometry">
            <mxPoint x="-60" y="-33" as="offset" />
          </mxGeometry>
        </mxCell>
        <mxCell id="5xte5br2Lsbq8j15-HT_-22" value="&lt;br&gt;Campo no debe estar vacío" style="strokeWidth=1;shadow=0;dashed=0;align=center;html=1;shape=mxgraph.mockup.containers.rrect;rSize=0;strokeColor=#666666;fontColor=#666666;fontSize=17;verticalAlign=top;whiteSpace=wrap;fillColor=#ffffff;spacingTop=32;" vertex="1" parent="kIP4dMhAOqKSTnuw4oQm-1">
          <mxGeometry x="2412" y="30" width="240" height="129" as="geometry" />
        </mxCell>
        <mxCell id="5xte5br2Lsbq8j15-HT_-23" value="Error" style="strokeWidth=1;shadow=0;dashed=0;align=center;html=1;shape=mxgraph.mockup.containers.rrect;rSize=0;fontSize=17;fontColor=#666666;strokeColor=#666666;align=left;spacingLeft=8;fillColor=#ffffff;resizeWidth=1;whiteSpace=wrap;" vertex="1" parent="5xte5br2Lsbq8j15-HT_-22">
          <mxGeometry width="240" height="30" relative="1" as="geometry" />
        </mxCell>
        <mxCell id="5xte5br2Lsbq8j15-HT_-24" value="" style="shape=ellipse;strokeColor=#008cff;resizable=0;fillColor=none;html=1;" vertex="1" parent="5xte5br2Lsbq8j15-HT_-23">
          <mxGeometry x="1" y="0.5" width="20" height="20" relative="1" as="geometry">
            <mxPoint x="-25" y="-10" as="offset" />
          </mxGeometry>
        </mxCell>
        <mxCell id="5xte5br2Lsbq8j15-HT_-25" value="OK" style="strokeWidth=1;shadow=0;dashed=0;align=center;html=1;shape=mxgraph.mockup.containers.rrect;rSize=0;fontSize=16;fontColor=#666666;strokeColor=#c4c4c4;resizable=0;whiteSpace=wrap;fillColor=#ffffff;" vertex="1" parent="5xte5br2Lsbq8j15-HT_-22">
          <mxGeometry x="0.5" y="1" width="120" height="25" relative="1" as="geometry">
            <mxPoint x="-60" y="-33" as="offset" />
          </mxGeometry>
        </mxCell>
        <mxCell id="5xte5br2Lsbq8j15-HT_-26" value="El formato de fecha debe ser:&lt;br&gt;dd/mm/aaaa" style="strokeWidth=1;shadow=0;dashed=0;align=center;html=1;shape=mxgraph.mockup.containers.rrect;rSize=0;strokeColor=#666666;fontColor=#666666;fontSize=17;verticalAlign=top;whiteSpace=wrap;fillColor=#ffffff;spacingTop=32;" vertex="1" parent="kIP4dMhAOqKSTnuw4oQm-1">
          <mxGeometry x="2412" y="370" width="240" height="129" as="geometry" />
        </mxCell>
        <mxCell id="5xte5br2Lsbq8j15-HT_-27" value="Error" style="strokeWidth=1;shadow=0;dashed=0;align=center;html=1;shape=mxgraph.mockup.containers.rrect;rSize=0;fontSize=17;fontColor=#666666;strokeColor=#666666;align=left;spacingLeft=8;fillColor=#ffffff;resizeWidth=1;whiteSpace=wrap;" vertex="1" parent="5xte5br2Lsbq8j15-HT_-26">
          <mxGeometry width="240" height="30" relative="1" as="geometry" />
        </mxCell>
        <mxCell id="5xte5br2Lsbq8j15-HT_-28" value="" style="shape=ellipse;strokeColor=#008cff;resizable=0;fillColor=none;html=1;" vertex="1" parent="5xte5br2Lsbq8j15-HT_-27">
          <mxGeometry x="1" y="0.5" width="20" height="20" relative="1" as="geometry">
            <mxPoint x="-25" y="-10" as="offset" />
          </mxGeometry>
        </mxCell>
        <mxCell id="5xte5br2Lsbq8j15-HT_-29" value="OK" style="strokeWidth=1;shadow=0;dashed=0;align=center;html=1;shape=mxgraph.mockup.containers.rrect;rSize=0;fontSize=16;fontColor=#666666;strokeColor=#c4c4c4;resizable=0;whiteSpace=wrap;fillColor=#ffffff;" vertex="1" parent="5xte5br2Lsbq8j15-HT_-26">
          <mxGeometry x="0.5" y="1" width="120" height="25" relative="1" as="geometry">
            <mxPoint x="-60" y="-33" as="offset" />
          </mxGeometry>
        </mxCell>
        <mxCell id="5xte5br2Lsbq8j15-HT_-30" value="" style="endArrow=classic;html=1;rounded=0;entryX=0;entryY=0.543;entryDx=0;entryDy=0;entryPerimeter=0;exitX=1;exitY=0.278;exitDx=0;exitDy=0;exitPerimeter=0;" edge="1" parent="kIP4dMhAOqKSTnuw4oQm-1" target="5xte5br2Lsbq8j15-HT_-26">
          <mxGeometry width="50" height="50" relative="1" as="geometry">
            <mxPoint x="2032" y="280" as="sourcePoint" />
            <mxPoint x="2072" y="220" as="targetPoint" />
          </mxGeometry>
        </mxCell>
        <mxCell id="5xte5br2Lsbq8j15-HT_-31" value="" style="endArrow=classic;html=1;rounded=0;entryX=0;entryY=0.473;entryDx=0;entryDy=0;entryPerimeter=0;exitX=1;exitY=0.389;exitDx=0;exitDy=0;exitPerimeter=0;" edge="1" parent="kIP4dMhAOqKSTnuw4oQm-1" target="5xte5br2Lsbq8j15-HT_-22">
          <mxGeometry width="50" height="50" relative="1" as="geometry">
            <mxPoint x="2032" y="177" as="sourcePoint" />
            <mxPoint x="2402" y="70" as="targetPoint" />
          </mxGeometry>
        </mxCell>
        <mxCell id="5xte5br2Lsbq8j15-HT_-32" value="" style="endArrow=classic;html=1;rounded=0;exitX=0.994;exitY=0.444;exitDx=0;exitDy=0;exitPerimeter=0;entryX=-0.017;entryY=0.496;entryDx=0;entryDy=0;entryPerimeter=0;" edge="1" parent="kIP4dMhAOqKSTnuw4oQm-1" target="5xte5br2Lsbq8j15-HT_-18">
          <mxGeometry width="50" height="50" relative="1" as="geometry">
            <mxPoint x="2030" y="248" as="sourcePoint" />
            <mxPoint x="2402" y="230" as="targetPoint" />
          </mxGeometry>
        </mxCell>
        <mxCell id="5xte5br2Lsbq8j15-HT_-34" value="CREDENCIALES DE ADMINISTRADOR" style="rhombus;whiteSpace=wrap;html=1;" vertex="1" parent="kIP4dMhAOqKSTnuw4oQm-1">
          <mxGeometry x="455" y="870" width="190" height="130" as="geometry" />
        </mxCell>
        <mxCell id="5xte5br2Lsbq8j15-HT_-35" value="" style="edgeStyle=orthogonalEdgeStyle;rounded=0;orthogonalLoop=1;jettySize=auto;html=1;" edge="1" parent="kIP4dMhAOqKSTnuw4oQm-1" source="kIP4dMhAOqKSTnuw4oQm-5" target="5xte5br2Lsbq8j15-HT_-34">
          <mxGeometry relative="1" as="geometry" />
        </mxCell>
        <mxCell id="5xte5br2Lsbq8j15-HT_-36" value="" style="strokeWidth=1;shadow=0;dashed=0;align=center;html=1;shape=mxgraph.mockup.containers.browserWindow;rSize=0;strokeColor=#666666;strokeColor2=#008cff;strokeColor3=#c4c4c4;mainText=,;recursiveResize=0;" vertex="1" parent="kIP4dMhAOqKSTnuw4oQm-1">
          <mxGeometry x="970" y="1000" width="1020" height="820" as="geometry" />
        </mxCell>
        <mxCell id="5xte5br2Lsbq8j15-HT_-37" value="" style="verticalLabelPosition=bottom;shadow=0;dashed=0;align=center;html=1;verticalAlign=top;strokeWidth=1;shape=mxgraph.mockup.graphics.simpleIcon;strokeColor=#999999;" vertex="1" parent="5xte5br2Lsbq8j15-HT_-36">
          <mxGeometry x="10" y="120" width="1000" height="610" as="geometry" />
        </mxCell>
        <mxCell id="5xte5br2Lsbq8j15-HT_-38" value="Page 1" style="strokeWidth=1;shadow=0;dashed=0;align=center;html=1;shape=mxgraph.mockup.containers.anchor;fontSize=17;fontColor=#666666;align=left;whiteSpace=wrap;" vertex="1" parent="5xte5br2Lsbq8j15-HT_-36">
          <mxGeometry x="60" y="12" width="110" height="26" as="geometry" />
        </mxCell>
        <mxCell id="5xte5br2Lsbq8j15-HT_-39" value="https://www.medicosascociados.com/Usuario" style="strokeWidth=1;shadow=0;dashed=0;align=center;html=1;shape=mxgraph.mockup.containers.anchor;rSize=0;fontSize=17;fontColor=#666666;align=left;" vertex="1" parent="5xte5br2Lsbq8j15-HT_-36">
          <mxGeometry x="130" y="60" width="310" height="30" as="geometry" />
        </mxCell>
        <mxCell id="5xte5br2Lsbq8j15-HT_-50" value="Cerrar Sesión" style="strokeColor=inherit;fillColor=inherit;gradientColor=inherit;strokeWidth=1;shadow=0;dashed=0;align=center;html=1;shape=mxgraph.mockup.forms.rrect;rSize=0;fontSize=17;fontColor=#666666;whiteSpace=wrap;" vertex="1" parent="5xte5br2Lsbq8j15-HT_-36">
          <mxGeometry x="180" y="120" width="110" height="30" as="geometry" />
        </mxCell>
        <mxCell id="5xte5br2Lsbq8j15-HT_-52" value="&lt;font color=&quot;#dbdbdb&quot;&gt;Registro de Datos&lt;/font&gt;" style="strokeColor=inherit;fillColor=inherit;gradientColor=inherit;strokeWidth=1;shadow=0;dashed=0;align=center;html=1;shape=mxgraph.mockup.forms.rrect;rSize=0;fontSize=17;fontColor=#666666;whiteSpace=wrap;opacity=30;" vertex="1" parent="5xte5br2Lsbq8j15-HT_-36">
          <mxGeometry x="40" y="120" width="140" height="30" as="geometry" />
        </mxCell>
        <mxCell id="5xte5br2Lsbq8j15-HT_-85" value="Table" style="shape=table;startSize=30;container=1;collapsible=0;childLayout=tableLayout;strokeColor=default;fontSize=16;" vertex="1" parent="5xte5br2Lsbq8j15-HT_-36">
          <mxGeometry x="600" y="220" width="300" height="150" as="geometry" />
        </mxCell>
        <mxCell id="5xte5br2Lsbq8j15-HT_-86" value="" style="shape=tableRow;horizontal=0;startSize=0;swimlaneHead=0;swimlaneBody=0;strokeColor=inherit;top=0;left=0;bottom=0;right=0;collapsible=0;dropTarget=0;fillColor=none;points=[[0,0.5],[1,0.5]];portConstraint=eastwest;fontSize=16;" vertex="1" parent="5xte5br2Lsbq8j15-HT_-85">
          <mxGeometry y="30" width="300" height="40" as="geometry" />
        </mxCell>
        <mxCell id="5xte5br2Lsbq8j15-HT_-87" value="" style="shape=partialRectangle;html=1;whiteSpace=wrap;connectable=0;strokeColor=inherit;overflow=hidden;fillColor=none;top=0;left=0;bottom=0;right=0;pointerEvents=1;fontSize=16;" vertex="1" parent="5xte5br2Lsbq8j15-HT_-86">
          <mxGeometry width="100" height="40" as="geometry">
            <mxRectangle width="100" height="40" as="alternateBounds" />
          </mxGeometry>
        </mxCell>
        <mxCell id="5xte5br2Lsbq8j15-HT_-88" value="" style="shape=partialRectangle;html=1;whiteSpace=wrap;connectable=0;strokeColor=inherit;overflow=hidden;fillColor=none;top=0;left=0;bottom=0;right=0;pointerEvents=1;fontSize=16;" vertex="1" parent="5xte5br2Lsbq8j15-HT_-86">
          <mxGeometry x="100" width="100" height="40" as="geometry">
            <mxRectangle width="100" height="40" as="alternateBounds" />
          </mxGeometry>
        </mxCell>
        <mxCell id="5xte5br2Lsbq8j15-HT_-89" value="" style="shape=partialRectangle;html=1;whiteSpace=wrap;connectable=0;strokeColor=inherit;overflow=hidden;fillColor=none;top=0;left=0;bottom=0;right=0;pointerEvents=1;fontSize=16;" vertex="1" parent="5xte5br2Lsbq8j15-HT_-86">
          <mxGeometry x="200" width="100" height="40" as="geometry">
            <mxRectangle width="100" height="40" as="alternateBounds" />
          </mxGeometry>
        </mxCell>
        <mxCell id="5xte5br2Lsbq8j15-HT_-90" value="" style="shape=tableRow;horizontal=0;startSize=0;swimlaneHead=0;swimlaneBody=0;strokeColor=inherit;top=0;left=0;bottom=0;right=0;collapsible=0;dropTarget=0;fillColor=none;points=[[0,0.5],[1,0.5]];portConstraint=eastwest;fontSize=16;" vertex="1" parent="5xte5br2Lsbq8j15-HT_-85">
          <mxGeometry y="70" width="300" height="40" as="geometry" />
        </mxCell>
        <mxCell id="5xte5br2Lsbq8j15-HT_-91" value="" style="shape=partialRectangle;html=1;whiteSpace=wrap;connectable=0;strokeColor=inherit;overflow=hidden;fillColor=none;top=0;left=0;bottom=0;right=0;pointerEvents=1;fontSize=16;" vertex="1" parent="5xte5br2Lsbq8j15-HT_-90">
          <mxGeometry width="100" height="40" as="geometry">
            <mxRectangle width="100" height="40" as="alternateBounds" />
          </mxGeometry>
        </mxCell>
        <mxCell id="5xte5br2Lsbq8j15-HT_-92" value="" style="shape=partialRectangle;html=1;whiteSpace=wrap;connectable=0;strokeColor=inherit;overflow=hidden;fillColor=none;top=0;left=0;bottom=0;right=0;pointerEvents=1;fontSize=16;" vertex="1" parent="5xte5br2Lsbq8j15-HT_-90">
          <mxGeometry x="100" width="100" height="40" as="geometry">
            <mxRectangle width="100" height="40" as="alternateBounds" />
          </mxGeometry>
        </mxCell>
        <mxCell id="5xte5br2Lsbq8j15-HT_-93" value="" style="shape=partialRectangle;html=1;whiteSpace=wrap;connectable=0;strokeColor=inherit;overflow=hidden;fillColor=none;top=0;left=0;bottom=0;right=0;pointerEvents=1;fontSize=16;" vertex="1" parent="5xte5br2Lsbq8j15-HT_-90">
          <mxGeometry x="200" width="100" height="40" as="geometry">
            <mxRectangle width="100" height="40" as="alternateBounds" />
          </mxGeometry>
        </mxCell>
        <mxCell id="5xte5br2Lsbq8j15-HT_-94" value="" style="shape=tableRow;horizontal=0;startSize=0;swimlaneHead=0;swimlaneBody=0;strokeColor=inherit;top=0;left=0;bottom=0;right=0;collapsible=0;dropTarget=0;fillColor=none;points=[[0,0.5],[1,0.5]];portConstraint=eastwest;fontSize=16;" vertex="1" parent="5xte5br2Lsbq8j15-HT_-85">
          <mxGeometry y="110" width="300" height="40" as="geometry" />
        </mxCell>
        <mxCell id="5xte5br2Lsbq8j15-HT_-95" value="" style="shape=partialRectangle;html=1;whiteSpace=wrap;connectable=0;strokeColor=inherit;overflow=hidden;fillColor=none;top=0;left=0;bottom=0;right=0;pointerEvents=1;fontSize=16;" vertex="1" parent="5xte5br2Lsbq8j15-HT_-94">
          <mxGeometry width="100" height="40" as="geometry">
            <mxRectangle width="100" height="40" as="alternateBounds" />
          </mxGeometry>
        </mxCell>
        <mxCell id="5xte5br2Lsbq8j15-HT_-96" value="" style="shape=partialRectangle;html=1;whiteSpace=wrap;connectable=0;strokeColor=inherit;overflow=hidden;fillColor=none;top=0;left=0;bottom=0;right=0;pointerEvents=1;fontSize=16;" vertex="1" parent="5xte5br2Lsbq8j15-HT_-94">
          <mxGeometry x="100" width="100" height="40" as="geometry">
            <mxRectangle width="100" height="40" as="alternateBounds" />
          </mxGeometry>
        </mxCell>
        <mxCell id="5xte5br2Lsbq8j15-HT_-97" value="" style="shape=partialRectangle;html=1;whiteSpace=wrap;connectable=0;strokeColor=inherit;overflow=hidden;fillColor=none;top=0;left=0;bottom=0;right=0;pointerEvents=1;fontSize=16;" vertex="1" parent="5xte5br2Lsbq8j15-HT_-94">
          <mxGeometry x="200" width="100" height="40" as="geometry">
            <mxRectangle width="100" height="40" as="alternateBounds" />
          </mxGeometry>
        </mxCell>
        <mxCell id="5xte5br2Lsbq8j15-HT_-98" style="edgeStyle=orthogonalEdgeStyle;rounded=0;orthogonalLoop=1;jettySize=auto;html=1;strokeColor=#FF3333;strokeWidth=3;entryX=-0.003;entryY=0.507;entryDx=0;entryDy=0;entryPerimeter=0;" edge="1" parent="kIP4dMhAOqKSTnuw4oQm-1" source="5xte5br2Lsbq8j15-HT_-136" target="5xte5br2Lsbq8j15-HT_-36">
          <mxGeometry relative="1" as="geometry">
            <mxPoint x="900" y="1440" as="targetPoint" />
            <Array as="points">
              <mxPoint x="930" y="1415" />
              <mxPoint x="930" y="1416" />
            </Array>
          </mxGeometry>
        </mxCell>
        <mxCell id="5xte5br2Lsbq8j15-HT_-100" value="" style="strokeWidth=1;shadow=0;dashed=0;align=center;html=1;shape=mxgraph.mockup.containers.browserWindow;rSize=0;strokeColor=#666666;strokeColor2=#008cff;strokeColor3=#c4c4c4;mainText=,;recursiveResize=0;" vertex="1" parent="kIP4dMhAOqKSTnuw4oQm-1">
          <mxGeometry x="-870" y="1040" width="1020" height="820" as="geometry" />
        </mxCell>
        <mxCell id="5xte5br2Lsbq8j15-HT_-101" value="" style="verticalLabelPosition=bottom;shadow=0;dashed=0;align=center;html=1;verticalAlign=top;strokeWidth=1;shape=mxgraph.mockup.graphics.simpleIcon;strokeColor=#999999;" vertex="1" parent="5xte5br2Lsbq8j15-HT_-100">
          <mxGeometry x="10" y="120" width="1000" height="610" as="geometry" />
        </mxCell>
        <mxCell id="5xte5br2Lsbq8j15-HT_-102" value="Page 1" style="strokeWidth=1;shadow=0;dashed=0;align=center;html=1;shape=mxgraph.mockup.containers.anchor;fontSize=17;fontColor=#666666;align=left;whiteSpace=wrap;" vertex="1" parent="5xte5br2Lsbq8j15-HT_-100">
          <mxGeometry x="60" y="12" width="110" height="26" as="geometry" />
        </mxCell>
        <mxCell id="5xte5br2Lsbq8j15-HT_-103" value="https://www.medicosascociados.com/Usuario" style="strokeWidth=1;shadow=0;dashed=0;align=center;html=1;shape=mxgraph.mockup.containers.anchor;rSize=0;fontSize=17;fontColor=#666666;align=left;" vertex="1" parent="5xte5br2Lsbq8j15-HT_-100">
          <mxGeometry x="130" y="60" width="310" height="30" as="geometry" />
        </mxCell>
        <mxCell id="5xte5br2Lsbq8j15-HT_-104" value="Cerrar Sesión" style="strokeColor=inherit;fillColor=inherit;gradientColor=inherit;strokeWidth=1;shadow=0;dashed=0;align=center;html=1;shape=mxgraph.mockup.forms.rrect;rSize=0;fontSize=17;fontColor=#666666;whiteSpace=wrap;" vertex="1" parent="5xte5br2Lsbq8j15-HT_-100">
          <mxGeometry x="180" y="120" width="110" height="30" as="geometry" />
        </mxCell>
        <mxCell id="5xte5br2Lsbq8j15-HT_-105" value="&lt;font color=&quot;#000000&quot;&gt;Registro de Datos&lt;/font&gt;" style="strokeColor=#000000;fillColor=inherit;gradientColor=inherit;strokeWidth=1;shadow=0;dashed=0;align=center;html=1;shape=mxgraph.mockup.forms.rrect;rSize=0;fontSize=17;fontColor=#666666;whiteSpace=wrap;opacity=30;" vertex="1" parent="5xte5br2Lsbq8j15-HT_-100">
          <mxGeometry x="40" y="120" width="140" height="30" as="geometry" />
        </mxCell>
        <mxCell id="5xte5br2Lsbq8j15-HT_-106" value="" style="strokeWidth=1;shadow=0;dashed=0;align=center;html=1;shape=mxgraph.mockup.forms.rrect;rSize=0;strokeColor=#999999;fillColor=#ffffff;" vertex="1" parent="5xte5br2Lsbq8j15-HT_-100">
          <mxGeometry x="130" y="220" width="300" height="360" as="geometry" />
        </mxCell>
        <mxCell id="5xte5br2Lsbq8j15-HT_-107" value="Formulario de registro de lectura" style="strokeWidth=1;shadow=0;dashed=0;align=center;html=1;shape=mxgraph.mockup.forms.anchor;fontSize=12;fontColor=#666666;align=left;resizeWidth=1;spacingLeft=0;" vertex="1" parent="5xte5br2Lsbq8j15-HT_-106">
          <mxGeometry width="190" height="20" relative="1" as="geometry">
            <mxPoint x="10" y="10" as="offset" />
          </mxGeometry>
        </mxCell>
        <mxCell id="5xte5br2Lsbq8j15-HT_-108" value="" style="shape=line;strokeColor=#ddeeff;strokeWidth=2;html=1;resizeWidth=1;" vertex="1" parent="5xte5br2Lsbq8j15-HT_-106">
          <mxGeometry width="270" height="10" relative="1" as="geometry">
            <mxPoint x="10" y="30" as="offset" />
          </mxGeometry>
        </mxCell>
        <mxCell id="5xte5br2Lsbq8j15-HT_-109" value="ID" style="strokeWidth=1;shadow=0;dashed=0;align=center;html=1;shape=mxgraph.mockup.forms.anchor;fontSize=12;fontColor=#666666;align=left;resizeWidth=1;spacingLeft=0;" vertex="1" parent="5xte5br2Lsbq8j15-HT_-106">
          <mxGeometry width="150" height="20" relative="1" as="geometry">
            <mxPoint x="10" y="40" as="offset" />
          </mxGeometry>
        </mxCell>
        <mxCell id="5xte5br2Lsbq8j15-HT_-110" value="" style="strokeWidth=1;shadow=0;dashed=0;align=center;html=1;shape=mxgraph.mockup.forms.rrect;rSize=0;strokeColor=#999999;fontColor=#666666;align=left;spacingLeft=5;resizeWidth=1;" vertex="1" parent="5xte5br2Lsbq8j15-HT_-106">
          <mxGeometry width="225" height="25" relative="1" as="geometry">
            <mxPoint x="10" y="60" as="offset" />
          </mxGeometry>
        </mxCell>
        <mxCell id="5xte5br2Lsbq8j15-HT_-111" value="Estudio 1" style="strokeWidth=1;shadow=0;dashed=0;align=center;html=1;shape=mxgraph.mockup.forms.anchor;fontSize=12;fontColor=#666666;align=left;resizeWidth=1;spacingLeft=0;" vertex="1" parent="5xte5br2Lsbq8j15-HT_-106">
          <mxGeometry width="150" height="20" relative="1" as="geometry">
            <mxPoint x="10" y="95" as="offset" />
          </mxGeometry>
        </mxCell>
        <mxCell id="5xte5br2Lsbq8j15-HT_-112" value="" style="strokeWidth=1;shadow=0;dashed=0;align=center;html=1;shape=mxgraph.mockup.forms.rrect;rSize=0;strokeColor=#999999;fontColor=#666666;align=left;spacingLeft=5;resizeWidth=1;" vertex="1" parent="5xte5br2Lsbq8j15-HT_-106">
          <mxGeometry width="225" height="25" relative="1" as="geometry">
            <mxPoint x="10" y="115" as="offset" />
          </mxGeometry>
        </mxCell>
        <mxCell id="5xte5br2Lsbq8j15-HT_-113" value="Estudio 2" style="strokeWidth=1;shadow=0;dashed=0;align=center;html=1;shape=mxgraph.mockup.forms.anchor;fontSize=12;fontColor=#666666;align=left;resizeWidth=1;spacingLeft=0;" vertex="1" parent="5xte5br2Lsbq8j15-HT_-106">
          <mxGeometry x="10" y="160" width="150" height="20" as="geometry" />
        </mxCell>
        <mxCell id="5xte5br2Lsbq8j15-HT_-114" value="" style="strokeWidth=1;shadow=0;dashed=0;align=center;html=1;shape=mxgraph.mockup.forms.rrect;rSize=0;strokeColor=#999999;fontColor=#666666;align=left;spacingLeft=5;resizeWidth=1;" vertex="1" parent="5xte5br2Lsbq8j15-HT_-106">
          <mxGeometry x="10" y="180" width="225" height="25" as="geometry" />
        </mxCell>
        <mxCell id="5xte5br2Lsbq8j15-HT_-115" value="" style="strokeWidth=1;shadow=0;dashed=0;align=center;html=1;shape=mxgraph.mockup.forms.rrect;rSize=0;strokeColor=#999999;fontColor=#666666;align=left;spacingLeft=5;resizeWidth=1;" vertex="1" parent="5xte5br2Lsbq8j15-HT_-106">
          <mxGeometry x="10" y="240" width="225" height="25" as="geometry" />
        </mxCell>
        <mxCell id="5xte5br2Lsbq8j15-HT_-116" value="Estudio 3" style="strokeWidth=1;shadow=0;dashed=0;align=center;html=1;shape=mxgraph.mockup.forms.anchor;fontSize=12;fontColor=#666666;align=left;resizeWidth=1;spacingLeft=0;" vertex="1" parent="5xte5br2Lsbq8j15-HT_-106">
          <mxGeometry x="10" y="220" width="150" height="20" as="geometry" />
        </mxCell>
        <mxCell id="5xte5br2Lsbq8j15-HT_-117" value="Table" style="shape=table;startSize=30;container=1;collapsible=0;childLayout=tableLayout;strokeColor=default;fontSize=16;" vertex="1" parent="5xte5br2Lsbq8j15-HT_-100">
          <mxGeometry x="600" y="220" width="300" height="150" as="geometry" />
        </mxCell>
        <mxCell id="5xte5br2Lsbq8j15-HT_-118" value="" style="shape=tableRow;horizontal=0;startSize=0;swimlaneHead=0;swimlaneBody=0;strokeColor=inherit;top=0;left=0;bottom=0;right=0;collapsible=0;dropTarget=0;fillColor=none;points=[[0,0.5],[1,0.5]];portConstraint=eastwest;fontSize=16;" vertex="1" parent="5xte5br2Lsbq8j15-HT_-117">
          <mxGeometry y="30" width="300" height="40" as="geometry" />
        </mxCell>
        <mxCell id="5xte5br2Lsbq8j15-HT_-119" value="" style="shape=partialRectangle;html=1;whiteSpace=wrap;connectable=0;strokeColor=inherit;overflow=hidden;fillColor=none;top=0;left=0;bottom=0;right=0;pointerEvents=1;fontSize=16;" vertex="1" parent="5xte5br2Lsbq8j15-HT_-118">
          <mxGeometry width="100" height="40" as="geometry">
            <mxRectangle width="100" height="40" as="alternateBounds" />
          </mxGeometry>
        </mxCell>
        <mxCell id="5xte5br2Lsbq8j15-HT_-120" value="" style="shape=partialRectangle;html=1;whiteSpace=wrap;connectable=0;strokeColor=inherit;overflow=hidden;fillColor=none;top=0;left=0;bottom=0;right=0;pointerEvents=1;fontSize=16;" vertex="1" parent="5xte5br2Lsbq8j15-HT_-118">
          <mxGeometry x="100" width="100" height="40" as="geometry">
            <mxRectangle width="100" height="40" as="alternateBounds" />
          </mxGeometry>
        </mxCell>
        <mxCell id="5xte5br2Lsbq8j15-HT_-121" value="" style="shape=partialRectangle;html=1;whiteSpace=wrap;connectable=0;strokeColor=inherit;overflow=hidden;fillColor=none;top=0;left=0;bottom=0;right=0;pointerEvents=1;fontSize=16;" vertex="1" parent="5xte5br2Lsbq8j15-HT_-118">
          <mxGeometry x="200" width="100" height="40" as="geometry">
            <mxRectangle width="100" height="40" as="alternateBounds" />
          </mxGeometry>
        </mxCell>
        <mxCell id="5xte5br2Lsbq8j15-HT_-122" value="" style="shape=tableRow;horizontal=0;startSize=0;swimlaneHead=0;swimlaneBody=0;strokeColor=inherit;top=0;left=0;bottom=0;right=0;collapsible=0;dropTarget=0;fillColor=none;points=[[0,0.5],[1,0.5]];portConstraint=eastwest;fontSize=16;" vertex="1" parent="5xte5br2Lsbq8j15-HT_-117">
          <mxGeometry y="70" width="300" height="40" as="geometry" />
        </mxCell>
        <mxCell id="5xte5br2Lsbq8j15-HT_-123" value="" style="shape=partialRectangle;html=1;whiteSpace=wrap;connectable=0;strokeColor=inherit;overflow=hidden;fillColor=none;top=0;left=0;bottom=0;right=0;pointerEvents=1;fontSize=16;" vertex="1" parent="5xte5br2Lsbq8j15-HT_-122">
          <mxGeometry width="100" height="40" as="geometry">
            <mxRectangle width="100" height="40" as="alternateBounds" />
          </mxGeometry>
        </mxCell>
        <mxCell id="5xte5br2Lsbq8j15-HT_-124" value="" style="shape=partialRectangle;html=1;whiteSpace=wrap;connectable=0;strokeColor=inherit;overflow=hidden;fillColor=none;top=0;left=0;bottom=0;right=0;pointerEvents=1;fontSize=16;" vertex="1" parent="5xte5br2Lsbq8j15-HT_-122">
          <mxGeometry x="100" width="100" height="40" as="geometry">
            <mxRectangle width="100" height="40" as="alternateBounds" />
          </mxGeometry>
        </mxCell>
        <mxCell id="5xte5br2Lsbq8j15-HT_-125" value="" style="shape=partialRectangle;html=1;whiteSpace=wrap;connectable=0;strokeColor=inherit;overflow=hidden;fillColor=none;top=0;left=0;bottom=0;right=0;pointerEvents=1;fontSize=16;" vertex="1" parent="5xte5br2Lsbq8j15-HT_-122">
          <mxGeometry x="200" width="100" height="40" as="geometry">
            <mxRectangle width="100" height="40" as="alternateBounds" />
          </mxGeometry>
        </mxCell>
        <mxCell id="5xte5br2Lsbq8j15-HT_-126" value="" style="shape=tableRow;horizontal=0;startSize=0;swimlaneHead=0;swimlaneBody=0;strokeColor=inherit;top=0;left=0;bottom=0;right=0;collapsible=0;dropTarget=0;fillColor=none;points=[[0,0.5],[1,0.5]];portConstraint=eastwest;fontSize=16;" vertex="1" parent="5xte5br2Lsbq8j15-HT_-117">
          <mxGeometry y="110" width="300" height="40" as="geometry" />
        </mxCell>
        <mxCell id="5xte5br2Lsbq8j15-HT_-127" value="" style="shape=partialRectangle;html=1;whiteSpace=wrap;connectable=0;strokeColor=inherit;overflow=hidden;fillColor=none;top=0;left=0;bottom=0;right=0;pointerEvents=1;fontSize=16;" vertex="1" parent="5xte5br2Lsbq8j15-HT_-126">
          <mxGeometry width="100" height="40" as="geometry">
            <mxRectangle width="100" height="40" as="alternateBounds" />
          </mxGeometry>
        </mxCell>
        <mxCell id="5xte5br2Lsbq8j15-HT_-128" value="" style="shape=partialRectangle;html=1;whiteSpace=wrap;connectable=0;strokeColor=inherit;overflow=hidden;fillColor=none;top=0;left=0;bottom=0;right=0;pointerEvents=1;fontSize=16;" vertex="1" parent="5xte5br2Lsbq8j15-HT_-126">
          <mxGeometry x="100" width="100" height="40" as="geometry">
            <mxRectangle width="100" height="40" as="alternateBounds" />
          </mxGeometry>
        </mxCell>
        <mxCell id="5xte5br2Lsbq8j15-HT_-129" value="" style="shape=partialRectangle;html=1;whiteSpace=wrap;connectable=0;strokeColor=inherit;overflow=hidden;fillColor=none;top=0;left=0;bottom=0;right=0;pointerEvents=1;fontSize=16;" vertex="1" parent="5xte5br2Lsbq8j15-HT_-126">
          <mxGeometry x="200" width="100" height="40" as="geometry">
            <mxRectangle width="100" height="40" as="alternateBounds" />
          </mxGeometry>
        </mxCell>
        <mxCell id="5xte5br2Lsbq8j15-HT_-130" value="Estudio 2" style="strokeWidth=1;shadow=0;dashed=0;align=center;html=1;shape=mxgraph.mockup.forms.anchor;fontSize=12;fontColor=#666666;align=left;resizeWidth=1;spacingLeft=0;" vertex="1" parent="kIP4dMhAOqKSTnuw4oQm-1">
          <mxGeometry x="-580" y="1440" width="150" height="20" as="geometry" />
        </mxCell>
        <mxCell id="5xte5br2Lsbq8j15-HT_-132" style="edgeStyle=orthogonalEdgeStyle;rounded=0;orthogonalLoop=1;jettySize=auto;html=1;entryX=1;entryY=0.457;entryDx=0;entryDy=0;entryPerimeter=0;strokeColor=#00CC00;strokeWidth=3;" edge="1" parent="kIP4dMhAOqKSTnuw4oQm-1" source="5xte5br2Lsbq8j15-HT_-133" target="5xte5br2Lsbq8j15-HT_-100">
          <mxGeometry relative="1" as="geometry" />
        </mxCell>
        <mxCell id="5xte5br2Lsbq8j15-HT_-134" value="" style="edgeStyle=orthogonalEdgeStyle;rounded=0;orthogonalLoop=1;jettySize=auto;html=1;entryX=1;entryY=0.457;entryDx=0;entryDy=0;entryPerimeter=0;strokeColor=#00CC00;strokeWidth=3;endArrow=none;endFill=0;" edge="1" parent="kIP4dMhAOqKSTnuw4oQm-1" source="5xte5br2Lsbq8j15-HT_-34" target="5xte5br2Lsbq8j15-HT_-133">
          <mxGeometry relative="1" as="geometry">
            <mxPoint x="455" y="935" as="sourcePoint" />
            <mxPoint x="150" y="1415" as="targetPoint" />
          </mxGeometry>
        </mxCell>
        <mxCell id="5xte5br2Lsbq8j15-HT_-133" value="Sí" style="text;html=1;align=center;verticalAlign=middle;whiteSpace=wrap;rounded=0;" vertex="1" parent="kIP4dMhAOqKSTnuw4oQm-1">
          <mxGeometry x="210" y="1400" width="60" height="30" as="geometry" />
        </mxCell>
        <mxCell id="5xte5br2Lsbq8j15-HT_-135" value="" style="edgeStyle=orthogonalEdgeStyle;rounded=0;orthogonalLoop=1;jettySize=auto;html=1;entryX=0.002;entryY=0.504;entryDx=0;entryDy=0;entryPerimeter=0;strokeColor=#FF3333;strokeWidth=3;endArrow=none;endFill=0;" edge="1" parent="kIP4dMhAOqKSTnuw4oQm-1" source="5xte5br2Lsbq8j15-HT_-34" target="5xte5br2Lsbq8j15-HT_-136">
          <mxGeometry relative="1" as="geometry">
            <mxPoint x="645" y="935" as="sourcePoint" />
            <mxPoint x="972" y="1413" as="targetPoint" />
          </mxGeometry>
        </mxCell>
        <mxCell id="5xte5br2Lsbq8j15-HT_-136" value="Text" style="text;html=1;align=center;verticalAlign=middle;whiteSpace=wrap;rounded=0;" vertex="1" parent="kIP4dMhAOqKSTnuw4oQm-1">
          <mxGeometry x="830" y="1400" width="60" height="30" as="geometry" />
        </mxCell>
      </root>
    </mxGraphModel>
  </diagram>
  <diagram name="Contáctenos" id="sq--BluH3f5POUkoJab4">
    <mxGraphModel dx="794" dy="1214" grid="1" gridSize="10" guides="1" tooltips="1" connect="1" arrows="1" fold="1" page="1" pageScale="1" pageWidth="1100" pageHeight="850" math="0" shadow="0">
      <root>
        <mxCell id="GJSNrF9DGLE8ukS6wmU6-0" />
        <mxCell id="GJSNrF9DGLE8ukS6wmU6-1" parent="GJSNrF9DGLE8ukS6wmU6-0" />
        <mxCell id="GJSNrF9DGLE8ukS6wmU6-2" value="" style="strokeWidth=1;shadow=0;dashed=0;align=center;html=1;shape=mxgraph.mockup.containers.browserWindow;rSize=0;strokeColor=#666666;strokeColor2=#008cff;strokeColor3=#c4c4c4;mainText=,;recursiveResize=0;" parent="GJSNrF9DGLE8ukS6wmU6-1" vertex="1">
          <mxGeometry x="55" y="125" width="990" height="600" as="geometry" />
        </mxCell>
        <mxCell id="GJSNrF9DGLE8ukS6wmU6-3" value="Page 1" style="strokeWidth=1;shadow=0;dashed=0;align=center;html=1;shape=mxgraph.mockup.containers.anchor;fontSize=17;fontColor=#666666;align=left;whiteSpace=wrap;" parent="GJSNrF9DGLE8ukS6wmU6-2" vertex="1">
          <mxGeometry x="60" y="12" width="110" height="26" as="geometry" />
        </mxCell>
        <mxCell id="GJSNrF9DGLE8ukS6wmU6-4" value="https://www.medicosascociados.com/IngresoUsuarios" style="strokeWidth=1;shadow=0;dashed=0;align=center;html=1;shape=mxgraph.mockup.containers.anchor;rSize=0;fontSize=17;fontColor=#666666;align=left;" parent="GJSNrF9DGLE8ukS6wmU6-2" vertex="1">
          <mxGeometry x="130" y="60" width="470" height="26" as="geometry" />
        </mxCell>
        <mxCell id="GJSNrF9DGLE8ukS6wmU6-5" value="" style="rounded=0;whiteSpace=wrap;html=1;fillColor=#003F69;" parent="GJSNrF9DGLE8ukS6wmU6-2" vertex="1">
          <mxGeometry y="110" width="990" height="490" as="geometry" />
        </mxCell>
        <mxCell id="GJSNrF9DGLE8ukS6wmU6-6" value="&lt;font style=&quot;font-size: 12px;&quot;&gt;CONTÁCTENOS&lt;/font&gt;" style="strokeWidth=1;shadow=0;dashed=0;align=center;html=1;shape=mxgraph.mockup.buttons.button;strokeColor=#666666;fontColor=#ffffff;mainText=;buttonStyle=round;fontSize=17;fontStyle=1;fillColor=#260d33;whiteSpace=wrap;" parent="GJSNrF9DGLE8ukS6wmU6-2" vertex="1">
          <mxGeometry x="840" y="110" width="150" height="50" as="geometry" />
        </mxCell>
        <mxCell id="GJSNrF9DGLE8ukS6wmU6-7" value="" style="strokeWidth=1;shadow=0;dashed=0;align=center;html=1;shape=mxgraph.mockup.rrect;rSize=10;fillColor=#ffffff;strokeColor=#666666;" parent="GJSNrF9DGLE8ukS6wmU6-2" vertex="1">
          <mxGeometry x="340" y="110" width="500" height="50" as="geometry" />
        </mxCell>
        <mxCell id="GJSNrF9DGLE8ukS6wmU6-8" value="&lt;font color=&quot;#ffffff&quot; style=&quot;font-size: 12px;&quot;&gt;EQUIPO PROFESIONAL&lt;span style=&quot;white-space: pre;&quot;&gt;&#x9;&lt;/span&gt;&lt;/font&gt;" style="strokeColor=#6C8EBF;fillColor=#106B87;strokeWidth=1;shadow=0;dashed=0;align=center;html=1;shape=mxgraph.mockup.rrect;rSize=0;fontSize=17;fontStyle=1;resizeHeight=1;whiteSpace=wrap;" parent="GJSNrF9DGLE8ukS6wmU6-7" vertex="1">
          <mxGeometry width="125" height="50" relative="1" as="geometry">
            <mxPoint x="125" as="offset" />
          </mxGeometry>
        </mxCell>
        <mxCell id="GJSNrF9DGLE8ukS6wmU6-9" value="&lt;font color=&quot;#ffffff&quot; style=&quot;font-size: 12px;&quot;&gt;ACTIVIDADES ACADÉMICAS&lt;/font&gt;" style="strokeColor=#6C8EBF;fillColor=#106B87;strokeWidth=1;shadow=0;dashed=0;align=center;html=1;shape=mxgraph.mockup.rrect;rSize=0;fontSize=17;fontStyle=1;resizeHeight=1;whiteSpace=wrap;" parent="GJSNrF9DGLE8ukS6wmU6-7" vertex="1">
          <mxGeometry width="125" height="50" relative="1" as="geometry">
            <mxPoint x="250" as="offset" />
          </mxGeometry>
        </mxCell>
        <mxCell id="GJSNrF9DGLE8ukS6wmU6-10" value="&lt;font color=&quot;#ffffff&quot; style=&quot;font-size: 12px;&quot;&gt;INGRESO USUARIOS&lt;/font&gt;" style="strokeColor=#D6B656;fillColor=#106b87;strokeWidth=1;shadow=0;dashed=0;align=center;html=1;shape=mxgraph.mockup.rightButton;rSize=10;fontSize=17;fontStyle=1;resizeHeight=1;whiteSpace=wrap;" parent="GJSNrF9DGLE8ukS6wmU6-7" vertex="1">
          <mxGeometry x="1" width="125" height="50" relative="1" as="geometry">
            <mxPoint x="-125" as="offset" />
          </mxGeometry>
        </mxCell>
        <mxCell id="GJSNrF9DGLE8ukS6wmU6-11" value="&lt;font style=&quot;font-size: 12px;&quot;&gt;PRINCIPAL&lt;/font&gt;" style="strokeWidth=1;shadow=0;dashed=0;align=center;html=1;shape=mxgraph.mockup.leftButton;rSize=10;fontSize=17;fontColor=#ffffff;fontStyle=1;fillColor=#106B87;strokeColor=#6C8EBF;resizeHeight=1;whiteSpace=wrap;" parent="GJSNrF9DGLE8ukS6wmU6-7" vertex="1">
          <mxGeometry width="125" height="50" relative="1" as="geometry" />
        </mxCell>
        <mxCell id="iXWldho7hC1JOXWQhkOh-0" value="" style="strokeWidth=1;shadow=0;dashed=0;align=center;html=1;shape=mxgraph.mockup.containers.browserWindow;rSize=0;strokeColor=#666666;strokeColor2=#008cff;strokeColor3=#c4c4c4;mainText=,;recursiveResize=0;" parent="GJSNrF9DGLE8ukS6wmU6-1" vertex="1">
          <mxGeometry x="55" y="125" width="990" height="650" as="geometry" />
        </mxCell>
        <mxCell id="iXWldho7hC1JOXWQhkOh-1" value="Page 1" style="strokeWidth=1;shadow=0;dashed=0;align=center;html=1;shape=mxgraph.mockup.containers.anchor;fontSize=17;fontColor=#666666;align=left;whiteSpace=wrap;" parent="iXWldho7hC1JOXWQhkOh-0" vertex="1">
          <mxGeometry x="60" y="12" width="110" height="26" as="geometry" />
        </mxCell>
        <mxCell id="iXWldho7hC1JOXWQhkOh-2" value="https://www.medicosascociados.com" style="strokeWidth=1;shadow=0;dashed=0;align=center;html=1;shape=mxgraph.mockup.containers.anchor;rSize=0;fontSize=17;fontColor=#666666;align=left;" parent="iXWldho7hC1JOXWQhkOh-0" vertex="1">
          <mxGeometry x="130" y="60" width="250" height="26" as="geometry" />
        </mxCell>
        <mxCell id="iXWldho7hC1JOXWQhkOh-3" value="" style="rounded=0;whiteSpace=wrap;html=1;fillColor=#003f69;" parent="iXWldho7hC1JOXWQhkOh-0" vertex="1">
          <mxGeometry y="110" width="990" height="540" as="geometry" />
        </mxCell>
        <mxCell id="iXWldho7hC1JOXWQhkOh-4" value="&lt;font style=&quot;font-size: 12px;&quot;&gt;CONTÁCTENOS&lt;/font&gt;" style="strokeWidth=1;shadow=0;dashed=0;align=center;html=1;shape=mxgraph.mockup.buttons.button;strokeColor=#6C8EBF;fontColor=#ffffff;mainText=;buttonStyle=round;fontSize=17;fontStyle=1;fillColor=#260d33;whiteSpace=wrap;" parent="iXWldho7hC1JOXWQhkOh-0" vertex="1">
          <mxGeometry x="840" y="110" width="150" height="50" as="geometry" />
        </mxCell>
        <mxCell id="iXWldho7hC1JOXWQhkOh-5" value="" style="strokeWidth=1;shadow=0;dashed=0;align=center;html=1;shape=mxgraph.mockup.rrect;rSize=10;fillColor=#ffffff;strokeColor=#666666;" parent="iXWldho7hC1JOXWQhkOh-0" vertex="1">
          <mxGeometry x="340" y="110" width="500" height="50" as="geometry" />
        </mxCell>
        <mxCell id="iXWldho7hC1JOXWQhkOh-6" value="&lt;font style=&quot;font-size: 12px;&quot;&gt;EQUIPO PROFESIONAL&lt;span style=&quot;white-space: pre;&quot;&gt;&#x9;&lt;/span&gt;&lt;/font&gt;" style="strokeColor=#6C8EBF;fillColor=#106b87;strokeWidth=1;shadow=0;dashed=0;align=center;html=1;shape=mxgraph.mockup.rrect;rSize=0;fontSize=17;fontStyle=1;resizeHeight=1;whiteSpace=wrap;fontColor=#FFFFFF;" parent="iXWldho7hC1JOXWQhkOh-5" vertex="1">
          <mxGeometry width="125" height="50" relative="1" as="geometry">
            <mxPoint x="125" as="offset" />
          </mxGeometry>
        </mxCell>
        <mxCell id="iXWldho7hC1JOXWQhkOh-7" value="&lt;font style=&quot;font-size: 12px;&quot;&gt;ACTIVIDADES ACADÉMICAS&lt;/font&gt;" style="strokeColor=#6C8EBF;fillColor=#106b87;strokeWidth=1;shadow=0;dashed=0;align=center;html=1;shape=mxgraph.mockup.rrect;rSize=0;fontSize=17;fontStyle=1;resizeHeight=1;whiteSpace=wrap;fontColor=#FFFFFF;" parent="iXWldho7hC1JOXWQhkOh-5" vertex="1">
          <mxGeometry width="125" height="50" relative="1" as="geometry">
            <mxPoint x="250" as="offset" />
          </mxGeometry>
        </mxCell>
        <mxCell id="iXWldho7hC1JOXWQhkOh-8" value="&lt;font style=&quot;font-size: 12px;&quot;&gt;INGRESO USUARIOS&lt;/font&gt;" style="strokeColor=#6C8EBF;fillColor=#106b87;strokeWidth=1;shadow=0;dashed=0;align=center;html=1;shape=mxgraph.mockup.rightButton;rSize=10;fontSize=17;fontStyle=1;resizeHeight=1;whiteSpace=wrap;fontColor=#FFFFFF;" parent="iXWldho7hC1JOXWQhkOh-5" vertex="1">
          <mxGeometry x="1" width="125" height="50" relative="1" as="geometry">
            <mxPoint x="-125" as="offset" />
          </mxGeometry>
        </mxCell>
        <mxCell id="iXWldho7hC1JOXWQhkOh-9" value="PRINCIPAL" style="strokeWidth=1;shadow=0;dashed=0;align=center;html=1;shape=mxgraph.mockup.leftButton;rSize=10;fontSize=17;fontColor=#ffffff;fontStyle=1;fillColor=#106b87;strokeColor=#008cff;resizeHeight=1;whiteSpace=wrap;" parent="iXWldho7hC1JOXWQhkOh-5" vertex="1">
          <mxGeometry width="125" height="50" relative="1" as="geometry" />
        </mxCell>
        <mxCell id="iXWldho7hC1JOXWQhkOh-10" value="&lt;h2 style=&quot;box-sizing: border-box; margin: 0px; font-family: Raleway; letter-spacing: 1px; color: rgb(255, 255, 255); text-align: start; text-wrap: wrap; background-color: rgb(0, 63, 105);&quot;&gt;CONTÁCTENOS&lt;/h2&gt;&lt;p style=&quot;box-sizing: border-box; color: rgb(255, 255, 255); font-family: &amp;quot;Droid Serif&amp;quot;; font-size: 25px; font-weight: 400; letter-spacing: 0.3px; text-align: start; text-wrap: wrap; background-color: rgb(0, 63, 105);&quot;&gt;Dirección: CL1 23 54 BOGOTÁ&lt;/p&gt;&lt;p style=&quot;box-sizing: border-box; color: rgb(255, 255, 255); font-family: &amp;quot;Droid Serif&amp;quot;; font-size: 25px; font-weight: 400; letter-spacing: 0.3px; text-align: start; text-wrap: wrap; background-color: rgb(0, 63, 105);&quot;&gt;Teléfono: 6019876543&lt;/p&gt;&lt;p style=&quot;box-sizing: border-box; color: rgb(255, 255, 255); font-family: &amp;quot;Droid Serif&amp;quot;; font-size: 25px; font-weight: 400; letter-spacing: 0.3px; text-align: start; text-wrap: wrap; background-color: rgb(0, 63, 105);&quot;&gt;e-mail: info@empresademedicos.com&lt;/p&gt;" style="text;strokeColor=none;fillColor=none;html=1;fontSize=24;fontStyle=1;verticalAlign=middle;align=center;" parent="iXWldho7hC1JOXWQhkOh-0" vertex="1">
          <mxGeometry x="25" y="205" width="355" height="300" as="geometry" />
        </mxCell>
        <mxCell id="PL-yPjHpkwDDDlaoYmZO-0" value="" style="group" vertex="1" connectable="0" parent="GJSNrF9DGLE8ukS6wmU6-1">
          <mxGeometry x="68" y="730" width="965" height="45" as="geometry" />
        </mxCell>
        <mxCell id="PL-yPjHpkwDDDlaoYmZO-1" value="" style="group" vertex="1" connectable="0" parent="PL-yPjHpkwDDDlaoYmZO-0">
          <mxGeometry x="5" width="960" height="45" as="geometry" />
        </mxCell>
        <mxCell id="PL-yPjHpkwDDDlaoYmZO-2" value="&lt;h1&gt;&lt;span style=&quot;color: rgb(255, 255, 255); background-color: initial; font-size: 12px; font-weight: normal;&quot;&gt;Política de Cookies&lt;/span&gt;&lt;/h1&gt;" style="text;html=1;strokeColor=none;fillColor=none;spacing=5;spacingTop=-20;whiteSpace=wrap;overflow=hidden;rounded=0;" vertex="1" parent="PL-yPjHpkwDDDlaoYmZO-1">
          <mxGeometry x="170" width="180" height="45" as="geometry" />
        </mxCell>
        <mxCell id="PL-yPjHpkwDDDlaoYmZO-3" value="" style="group" vertex="1" connectable="0" parent="PL-yPjHpkwDDDlaoYmZO-1">
          <mxGeometry width="960" height="45" as="geometry" />
        </mxCell>
        <mxCell id="PL-yPjHpkwDDDlaoYmZO-4" value="" style="endArrow=none;html=1;rounded=0;strokeColor=#ffffff;entryX=0.965;entryY=0.922;entryDx=0;entryDy=0;entryPerimeter=0;" edge="1" parent="PL-yPjHpkwDDDlaoYmZO-3">
          <mxGeometry width="50" height="50" relative="1" as="geometry">
            <mxPoint y="0.4800000000000182" as="sourcePoint" />
            <mxPoint x="930.3499999999999" as="targetPoint" />
          </mxGeometry>
        </mxCell>
        <mxCell id="PL-yPjHpkwDDDlaoYmZO-5" value="&lt;h1&gt;&lt;span style=&quot;color: rgb(255, 255, 255); background-color: initial; font-size: 12px; font-weight: normal;&quot;&gt;Derechos reservados&lt;/span&gt;&lt;/h1&gt;" style="text;html=1;strokeColor=none;fillColor=none;spacing=5;spacingTop=-20;whiteSpace=wrap;overflow=hidden;rounded=0;" vertex="1" parent="PL-yPjHpkwDDDlaoYmZO-3">
          <mxGeometry x="780" width="180" height="45" as="geometry" />
        </mxCell>
        <mxCell id="PL-yPjHpkwDDDlaoYmZO-6" value="&lt;h1&gt;&lt;span style=&quot;color: rgb(255, 255, 255); background-color: initial; font-size: 12px; font-weight: normal;&quot;&gt;Política de Manejo de Datos&lt;/span&gt;&lt;/h1&gt;" style="text;html=1;strokeColor=none;fillColor=none;spacing=5;spacingTop=-20;whiteSpace=wrap;overflow=hidden;rounded=0;" vertex="1" parent="PL-yPjHpkwDDDlaoYmZO-3">
          <mxGeometry x="-5" width="180" height="45" as="geometry" />
        </mxCell>
      </root>
    </mxGraphModel>
  </diagram>
</mxfile>
